<svg id="Grupo_11033" data-name="Grupo 11033" xmlns="http://www.w3.org/2000/svg" xmlns:xlink="http://www.w3.org/1999/xlink" width="167.003" height="38.576" viewBox="0 0 167.003 38.576">
  <defs>
    <clipPath id="clip-path">
      <rect id="Rect치ngulo_709" data-name="Rect치ngulo 709" width="167.003" height="38.576" fill="none"/>
    </clipPath>
  </defs>
  <g id="Grupo_11032" data-name="Grupo 11032" clip-path="url(#clip-path)">
    <path id="Trazado_10147" data-name="Trazado 10147" d="M96.111,26.413a9.3,9.3,0,0,0-7.219,3.427,9.322,9.322,0,0,0-12.376-1.873V26.413H72.39V51.165h4.125V35.606a5.158,5.158,0,0,1,10.314,0V51.165h4.125V35.606a5.158,5.158,0,0,1,10.314,0V51.165h4.125V35.606a9.248,9.248,0,0,0-9.282-9.193" transform="translate(-36.623 -13.363)" fill="#292a30"/>
    <path id="Trazado_10148" data-name="Trazado 10148" d="M156.264,26.413c-6.54,0-11.86,5.668-11.86,12.634s5.32,12.634,11.86,12.634,11.86-5.668,11.86-12.634-5.32-12.634-11.86-12.634m0,21.142c-4.265,0-7.735-3.817-7.735-8.509s3.47-8.509,7.735-8.509S164,34.355,164,39.047s-3.47,8.509-7.735,8.509" transform="translate(-73.056 -13.363)" fill="#292a30"/>
    <path id="Trazado_10149" data-name="Trazado 10149" d="M208.969,26.413c-6.54,0-11.86,5.668-11.86,12.634s5.321,12.634,11.86,12.634,11.86-5.668,11.86-12.634-5.32-12.634-11.86-12.634m0,21.142c-4.265,0-7.735-3.817-7.735-8.509s3.47-8.509,7.735-8.509,7.735,3.817,7.735,8.509-3.47,8.509-7.735,8.509" transform="translate(-99.72 -13.363)" fill="#292a30"/>
    <rect id="Rect치ngulo_708" data-name="Rect치ngulo 708" width="4.125" height="24.236" transform="translate(148.182 13.566)" fill="#292a30"/>
    <path id="Trazado_10150" data-name="Trazado 10150" d="M327.444,25.246V21.121h-6.188V14.933h-4.125V37.107a8.26,8.26,0,0,0,8.25,8.251h2.063V41.232h-2.063a4.13,4.13,0,0,1-4.125-4.125V25.246Z" transform="translate(-160.441 -7.555)" fill="#292a30"/>
    <path id="Trazado_10151" data-name="Trazado 10151" d="M255.774,45.187l-8-17.73h-4.526l10.936,24.236h3.18L268.3,27.457h-4.526Z" transform="translate(-123.062 -13.891)" fill="#292a30"/>
    <path id="Trazado_10152" data-name="Trazado 10152" d="M301.709,13.889a2.321,2.321,0,1,1-2.321,2.321,2.321,2.321,0,0,1,2.321-2.321" transform="translate(-151.464 -7.027)" fill="#292a30"/>
    <path id="Trazado_10153" data-name="Trazado 10153" d="M15.42,0A15.425,15.425,0,0,0,0,15.43C0,27,15.42,38.576,15.42,38.576S30.841,27,30.841,15.43A15.426,15.426,0,0,0,15.42,0" fill="#f05523"/>
    <path id="Trazado_10154" data-name="Trazado 10154" d="M42.87,28.331a1.374,1.374,0,1,1,1.374-1.374,1.376,1.376,0,0,1-1.374,1.374" transform="translate(-20.993 -12.943)" fill="#262728"/>
    <path id="Trazado_10155" data-name="Trazado 10155" d="M16.978,28.331a1.374,1.374,0,1,1,1.374-1.374,1.376,1.376,0,0,1-1.374,1.374" transform="translate(-7.894 -12.943)" fill="#262728"/>
    <path id="Trazado_10156" data-name="Trazado 10156" d="M26.278,37.055a8.4,8.4,0,0,1-4.972-1.749.705.705,0,0,1,.9-1.084,7.077,7.077,0,0,0,4.07,1.422,6,6,0,0,0,3.756-1.262.705.705,0,0,1,.941,1.05,7.421,7.421,0,0,1-4.7,1.622" transform="translate(-10.651 -17.231)" fill="#262728"/>
  </g>
</svg>
