<svg xmlns="http://www.w3.org/2000/svg" width="112.289" height="37.711" viewBox="0 0 112.289 37.711">
  <path id="uber" d="M0,11.955V35.161c0,8.749,6.082,14.5,14.036,14.5a13.369,13.369,0,0,0,9.779-4.07v3.462h5.521v-37.1H23.768V34.834c0,5.9-3.977,9.872-9.077,9.872-5.193,0-9.123-3.883-9.123-9.872V11.955H0m34.81,0v37.1H40.1V45.642a13.475,13.475,0,0,0,9.638,4.024,14.107,14.107,0,1,0,0-28.213,13.381,13.381,0,0,0-9.591,4.024V11.955H34.81m46.179,9.5a13.927,13.927,0,0,0-13.9,14.036c0,8.094,6.269,14.036,14.364,14.036a13.969,13.969,0,0,0,11.65-5.661l-3.837-2.9a9.209,9.209,0,0,1-7.813,3.883,8.972,8.972,0,0,1-8.936-7.58H94.51V35.489c0-8-5.755-14.036-13.521-14.036m29.429.374a7.225,7.225,0,0,0-6.457,3.509V22.014H98.674V49.057h5.334V33.664c0-4.164,2.573-6.878,6.082-6.878h2.2V21.78h-1.871M80.895,26.131a8.378,8.378,0,0,1,8.188,6.878H72.52a8.732,8.732,0,0,1,8.375-6.878m-31.534,0a9.358,9.358,0,1,1-9.311,9.357,9.335,9.335,0,0,1,9.311-9.357Z" transform="translate(0 -11.955)"/>
</svg>
