<svg xmlns="http://www.w3.org/2000/svg" width="20.134" height="20.13" viewBox="0 0 20.134 20.13">
  <path id="Icon_awesome-instagram" data-name="Icon awesome-instagram" d="M10.064,7.142A5.161,5.161,0,1,0,15.225,12.3,5.153,5.153,0,0,0,10.064,7.142Zm0,8.516A3.355,3.355,0,1,1,13.419,12.3,3.361,3.361,0,0,1,10.064,15.658ZM16.64,6.93a1.2,1.2,0,1,1-1.2-1.2A1.2,1.2,0,0,1,16.64,6.93Zm3.418,1.222a5.957,5.957,0,0,0-1.626-4.218,6,6,0,0,0-4.218-1.626c-1.662-.094-6.643-.094-8.305,0A5.988,5.988,0,0,0,1.691,3.93,5.977,5.977,0,0,0,.065,8.148c-.094,1.662-.094,6.643,0,8.305a5.957,5.957,0,0,0,1.626,4.218A6,6,0,0,0,5.909,22.3c1.662.094,6.643.094,8.305,0a5.957,5.957,0,0,0,4.218-1.626,6,6,0,0,0,1.626-4.218c.094-1.662.094-6.639,0-8.3ZM17.911,18.236A3.4,3.4,0,0,1,16,20.15c-1.325.526-4.469.4-5.933.4s-4.613.117-5.933-.4a3.4,3.4,0,0,1-1.913-1.913c-.526-1.325-.4-4.469-.4-5.934s-.117-4.613.4-5.934A3.4,3.4,0,0,1,4.13,4.456c1.325-.526,4.469-.4,5.933-.4s4.613-.117,5.933.4a3.4,3.4,0,0,1,1.913,1.913c.526,1.325.4,4.469.4,5.934S18.436,16.916,17.911,18.236Z" transform="translate(0.005 -2.238)" fill="#fff"/>
</svg>
