<svg xmlns="http://www.w3.org/2000/svg" width="21.196" height="17.248" viewBox="0 0 21.196 17.248">
  <path id="Icon_ionic-logo-twitter" data-name="Icon ionic-logo-twitter" d="M22.609,6.544a8.792,8.792,0,0,1-2.5.687,4.364,4.364,0,0,0,1.913-2.408,8.641,8.641,0,0,1-2.762,1.056A4.347,4.347,0,0,0,11.74,8.853a4.258,4.258,0,0,0,.112.993A12.324,12.324,0,0,1,2.887,5.3a4.357,4.357,0,0,0,1.352,5.812,4.247,4.247,0,0,1-1.976-.544v.054a4.353,4.353,0,0,0,3.49,4.267,4.377,4.377,0,0,1-1.145.153,4.1,4.1,0,0,1-.817-.081A4.356,4.356,0,0,0,7.854,17.98a8.719,8.719,0,0,1-5.4,1.864,8.815,8.815,0,0,1-1.038-.063A12.155,12.155,0,0,0,8.07,21.748,12.3,12.3,0,0,0,20.453,9.36c0-.189,0-.377-.013-.561A8.853,8.853,0,0,0,22.609,6.544Z" transform="translate(-1.413 -4.5)" fill="#fff"/>
</svg>
