<svg xmlns="http://www.w3.org/2000/svg" width="23.31" height="23.31" viewBox="0 0 23.31 23.31">
  <path id="Icon_ionic-logo-whatsapp" data-name="Icon ionic-logo-whatsapp" d="M14.116,2.25A11.4,11.4,0,0,0,2.673,13.605a11.238,11.238,0,0,0,1.642,5.863L2.25,25.56l6.335-2.013A11.462,11.462,0,0,0,25.56,13.605,11.4,11.4,0,0,0,14.116,2.25Zm5.69,15.667a2.956,2.956,0,0,1-2.024,1.3c-.537.028-.552.416-3.478-.855A11.939,11.939,0,0,1,9.48,13.805,5.612,5.612,0,0,1,8.4,10.764,3.243,3.243,0,0,1,9.515,8.384a1.121,1.121,0,0,1,.793-.334c.23,0,.38-.007.55,0s.426-.036.648.554.751,2.037.819,2.185a.53.53,0,0,1,.005.508,1.987,1.987,0,0,1-.31.473c-.153.164-.321.366-.457.492-.152.139-.311.29-.151.586a8.757,8.757,0,0,0,1.549,2.068,7.984,7.984,0,0,0,2.294,1.525c.287.156.458.139.636-.048s.762-.819.968-1.1.4-.228.663-.121,1.673.861,1.96,1.017.478.236.547.359A2.4,2.4,0,0,1,19.806,17.917Z" transform="translate(-2.25 -2.25)" fill="#fff"/>
</svg>
