<svg xmlns="http://www.w3.org/2000/svg" width="22.994" height="17.249" viewBox="0 0 22.994 17.249">
  <path id="Icon_ionic-logo-youtube" data-name="Icon ionic-logo-youtube" d="M22.844,8.309a3.492,3.492,0,0,0-3.324-3.647C17.032,4.545,14.494,4.5,11.9,4.5h-.808c-2.587,0-5.129.045-7.618.162A3.5,3.5,0,0,0,.157,8.318c-.112,1.6-.162,3.2-.157,4.8s.045,3.2.153,4.8a3.5,3.5,0,0,0,3.319,3.661c2.614.121,5.3.175,8.022.171s5.4-.045,8.022-.171a3.5,3.5,0,0,0,3.324-3.661c.108-1.6.157-3.2.153-4.806S22.952,9.913,22.844,8.309ZM9.3,17.522V8.7l6.513,4.411Z" transform="translate(0 -4.5)" fill="#fff"/>
</svg>
