<svg xmlns="http://www.w3.org/2000/svg" width="375" viewBox="0 0 375 375" height="375" version="1.0"><defs><clipPath id="a"><path d="M 47 107.34375 L 328 107.34375 L 328 267.84375 L 47 267.84375 Z M 47 107.34375"/></clipPath></defs><g clip-path="url(#a)"><path fill="#00597E" d="M 54.464844 172.53125 L 62.929688 175.828125 L 62.929688 211.835938 C 54.933594 213.953125 48.820312 221.246094 48.820312 229.953125 C 48.820312 240.308594 57.285156 248.78125 67.632812 248.78125 C 77.976562 248.78125 86.445312 240.308594 86.445312 229.953125 C 86.445312 221.246094 80.328125 213.953125 72.335938 211.835938 L 72.335938 179.59375 L 100.554688 190.890625 L 100.554688 246.664062 C 100.554688 253.488281 106.195312 260.550781 113.484375 261.960938 C 127.832031 264.550781 153.226562 267.84375 185.914062 267.84375 C 223.300781 267.84375 247.992188 264.550781 261.632812 262.195312 C 268.6875 260.785156 274.566406 253.722656 274.566406 246.664062 L 274.566406 190.890625 L 320.652344 172.53125 C 330.296875 168.765625 330.296875 162.414062 320.652344 158.414062 L 204.019531 110.402344 C 199.316406 108.519531 192.96875 107.34375 186.851562 107.34375 C 180.503906 107.34375 174.15625 108.285156 169.453125 110.402344 L 54.464844 158.414062 C 44.820312 162.414062 44.820312 168.765625 54.464844 172.53125 Z M 77.039062 230.191406 C 77.039062 235.367188 72.804688 239.605469 67.632812 239.605469 C 62.457031 239.605469 58.226562 235.367188 58.226562 230.191406 C 58.226562 225.011719 62.457031 220.777344 67.632812 220.777344 C 72.804688 220.777344 77.039062 225.011719 77.039062 230.191406 Z M 265.160156 246.664062 C 265.160156 249.015625 262.808594 252.3125 259.984375 252.78125 C 246.347656 255.371094 222.125 258.429688 185.914062 258.429688 C 154.636719 258.429688 130.183594 255.371094 115.132812 252.546875 C 112.308594 252.078125 109.957031 249.015625 109.957031 246.664062 L 109.957031 194.65625 L 170.15625 218.421875 C 174.859375 220.304688 181.210938 221.246094 187.558594 221.246094 C 193.90625 221.246094 200.257812 220.304688 204.960938 218.421875 L 265.160156 194.65625 Z M 172.980469 119.109375 C 176.507812 117.699219 181.445312 116.757812 186.851562 116.757812 C 192.027344 116.757812 197.199219 117.464844 200.492188 118.875 L 312.894531 165.238281 L 201.667969 209.714844 C 198.140625 211.128906 192.96875 211.835938 187.558594 211.835938 C 182.148438 211.835938 176.976562 211.128906 173.449219 209.714844 L 61.988281 165.472656 Z M 172.980469 119.109375"/></g></svg>