<svg xmlns="http://www.w3.org/2000/svg" width="375" viewBox="0 0 375 375" height="375" version="1.0"><defs><clipPath id="a"><path d="M 62.078125 66.46875 L 312.578125 66.46875 L 312.578125 308.71875 L 62.078125 308.71875 Z M 62.078125 66.46875"/></clipPath></defs><g clip-path="url(#a)"><path fill="#00597E" d="M 239.128906 161.640625 C 198.660156 161.640625 165.746094 194.625 165.746094 235.179688 C 165.746094 247.683594 168.902344 259.460938 174.414062 269.785156 L 70.785156 269.785156 L 70.785156 122.707031 L 260.710938 122.707031 L 260.710938 164.902344 C 253.882812 162.789062 246.632812 161.640625 239.128906 161.640625 Z M 303.875 235.179688 C 303.875 270.96875 274.824219 300.066406 239.128906 300.066406 C 203.433594 300.066406 174.378906 270.96875 174.378906 235.179688 C 174.378906 199.390625 203.433594 170.292969 239.128906 170.292969 C 274.824219 170.292969 303.875 199.390625 303.875 235.179688 Z M 88.050781 278.4375 L 179.910156 278.4375 C 182.136719 281.496094 184.546875 284.421875 187.195312 287.089844 L 88.050781 287.089844 Z M 70.785156 92.425781 C 70.785156 90.042969 72.722656 88.097656 75.101562 88.097656 L 88.050781 88.097656 L 88.050781 96.75 C 88.050781 99.132812 89.988281 101.078125 92.367188 101.078125 L 109.632812 101.078125 C 112.011719 101.078125 113.949219 99.132812 113.949219 96.75 L 113.949219 88.097656 L 131.214844 88.097656 L 131.214844 96.75 C 131.214844 99.132812 133.15625 101.078125 135.53125 101.078125 L 152.796875 101.078125 C 155.175781 101.078125 157.113281 99.132812 157.113281 96.75 L 157.113281 88.097656 L 174.378906 88.097656 L 174.378906 96.75 C 174.378906 99.132812 176.320312 101.078125 178.695312 101.078125 L 195.960938 101.078125 C 198.339844 101.078125 200.28125 99.132812 200.28125 96.75 L 200.28125 88.097656 L 217.546875 88.097656 L 217.546875 96.75 C 217.546875 99.132812 219.484375 101.078125 221.863281 101.078125 L 239.128906 101.078125 C 241.503906 101.078125 243.445312 99.132812 243.445312 96.75 L 243.445312 88.097656 L 256.394531 88.097656 C 258.769531 88.097656 260.710938 90.042969 260.710938 92.425781 L 260.710938 114.054688 L 70.785156 114.054688 Z M 96.683594 79.449219 C 96.683594 77.066406 98.621094 75.121094 101 75.121094 C 103.378906 75.121094 105.316406 77.066406 105.316406 79.449219 L 105.316406 92.425781 L 96.683594 92.425781 Z M 139.847656 79.449219 C 139.847656 77.066406 141.789062 75.121094 144.164062 75.121094 C 146.542969 75.121094 148.480469 77.066406 148.480469 79.449219 L 148.480469 92.425781 L 139.847656 92.425781 Z M 183.011719 79.449219 C 183.011719 77.066406 184.953125 75.121094 187.328125 75.121094 C 189.707031 75.121094 191.644531 77.066406 191.644531 79.449219 L 191.644531 92.425781 L 183.011719 92.425781 Z M 226.179688 79.449219 C 226.179688 77.066406 228.117188 75.121094 230.496094 75.121094 C 232.871094 75.121094 234.8125 77.066406 234.8125 79.449219 L 234.8125 92.425781 L 226.179688 92.425781 Z M 269.34375 92.425781 C 269.34375 85.261719 263.542969 79.449219 256.394531 79.449219 L 243.445312 79.449219 C 243.445312 72.28125 237.644531 66.46875 230.496094 66.46875 C 223.34375 66.46875 217.546875 72.28125 217.546875 79.449219 L 200.28125 79.449219 C 200.28125 72.28125 194.480469 66.46875 187.328125 66.46875 C 180.179688 66.46875 174.378906 72.28125 174.378906 79.449219 L 157.113281 79.449219 C 157.113281 72.28125 151.3125 66.46875 144.164062 66.46875 C 137.015625 66.46875 131.214844 72.28125 131.214844 79.449219 L 113.949219 79.449219 C 113.949219 72.28125 108.148438 66.46875 101 66.46875 C 93.851562 66.46875 88.050781 72.28125 88.050781 79.449219 L 75.101562 79.449219 C 67.953125 79.449219 62.152344 85.261719 62.152344 92.425781 L 62.152344 274.113281 C 62.152344 276.496094 64.089844 278.4375 66.46875 278.4375 L 79.417969 278.4375 L 79.417969 291.417969 C 79.417969 293.796875 81.355469 295.742188 83.734375 295.742188 L 197.394531 295.742188 C 197.445312 295.742188 197.496094 295.707031 197.546875 295.707031 C 209.382812 303.902344 223.699219 308.71875 239.128906 308.71875 C 279.59375 308.71875 312.507812 275.734375 312.507812 235.179688 C 312.507812 205.421875 294.753906 179.804688 269.34375 168.246094 L 269.34375 92.425781"/></g><path fill="#00597E" d="M 101 157.3125 C 98.621094 157.3125 96.683594 155.371094 96.683594 152.988281 C 96.683594 150.605469 98.621094 148.660156 101 148.660156 C 103.378906 148.660156 105.316406 150.605469 105.316406 152.988281 C 105.316406 155.371094 103.378906 157.3125 101 157.3125 Z M 101 140.011719 C 93.851562 140.011719 88.050781 145.824219 88.050781 152.988281 C 88.050781 160.152344 93.851562 165.964844 101 165.964844 C 108.148438 165.964844 113.949219 160.152344 113.949219 152.988281 C 113.949219 145.824219 108.148438 140.011719 101 140.011719"/><path fill="#00597E" d="M 144.164062 157.3125 C 141.789062 157.3125 139.847656 155.371094 139.847656 152.988281 C 139.847656 150.605469 141.789062 148.660156 144.164062 148.660156 C 146.542969 148.660156 148.480469 150.605469 148.480469 152.988281 C 148.480469 155.371094 146.542969 157.3125 144.164062 157.3125 Z M 144.164062 140.011719 C 137.015625 140.011719 131.214844 145.824219 131.214844 152.988281 C 131.214844 160.152344 137.015625 165.964844 144.164062 165.964844 C 151.3125 165.964844 157.113281 160.152344 157.113281 152.988281 C 157.113281 145.824219 151.3125 140.011719 144.164062 140.011719"/><path fill="#00597E" d="M 187.328125 157.3125 C 184.953125 157.3125 183.011719 155.371094 183.011719 152.988281 C 183.011719 150.605469 184.953125 148.660156 187.328125 148.660156 C 189.707031 148.660156 191.644531 150.605469 191.644531 152.988281 C 191.644531 155.371094 189.707031 157.3125 187.328125 157.3125 Z M 187.328125 140.011719 C 180.179688 140.011719 174.378906 145.824219 174.378906 152.988281 C 174.378906 160.152344 180.179688 165.964844 187.328125 165.964844 C 194.480469 165.964844 200.28125 160.152344 200.28125 152.988281 C 200.28125 145.824219 194.480469 140.011719 187.328125 140.011719"/><path fill="#00597E" d="M 101 191.921875 C 98.621094 191.921875 96.683594 189.976562 96.683594 187.59375 C 96.683594 185.210938 98.621094 183.269531 101 183.269531 C 103.378906 183.269531 105.316406 185.210938 105.316406 187.59375 C 105.316406 189.976562 103.378906 191.921875 101 191.921875 Z M 101 174.617188 C 93.851562 174.617188 88.050781 180.429688 88.050781 187.59375 C 88.050781 194.757812 93.851562 200.574219 101 200.574219 C 108.148438 200.574219 113.949219 194.757812 113.949219 187.59375 C 113.949219 180.429688 108.148438 174.617188 101 174.617188"/><path fill="#00597E" d="M 144.164062 191.921875 C 141.789062 191.921875 139.847656 189.976562 139.847656 187.59375 C 139.847656 185.210938 141.789062 183.269531 144.164062 183.269531 C 146.542969 183.269531 148.480469 185.210938 148.480469 187.59375 C 148.480469 189.976562 146.542969 191.921875 144.164062 191.921875 Z M 144.164062 174.617188 C 137.015625 174.617188 131.214844 180.429688 131.214844 187.59375 C 131.214844 194.757812 137.015625 200.574219 144.164062 200.574219 C 151.3125 200.574219 157.113281 194.757812 157.113281 187.59375 C 157.113281 180.429688 151.3125 174.617188 144.164062 174.617188"/><path fill="#00597E" d="M 101 226.527344 C 98.621094 226.527344 96.683594 224.585938 96.683594 222.203125 C 96.683594 219.820312 98.621094 217.875 101 217.875 C 103.378906 217.875 105.316406 219.820312 105.316406 222.203125 C 105.316406 224.585938 103.378906 226.527344 101 226.527344 Z M 101 209.222656 C 93.851562 209.222656 88.050781 215.035156 88.050781 222.203125 C 88.050781 229.367188 93.851562 235.179688 101 235.179688 C 108.148438 235.179688 113.949219 229.367188 113.949219 222.203125 C 113.949219 215.035156 108.148438 209.222656 101 209.222656"/><path fill="#00597E" d="M 144.164062 226.527344 C 141.789062 226.527344 139.847656 224.585938 139.847656 222.203125 C 139.847656 219.820312 141.789062 217.875 144.164062 217.875 C 146.542969 217.875 148.480469 219.820312 148.480469 222.203125 C 148.480469 224.585938 146.542969 226.527344 144.164062 226.527344 Z M 144.164062 209.222656 C 137.015625 209.222656 131.214844 215.035156 131.214844 222.203125 C 131.214844 229.367188 137.015625 235.179688 144.164062 235.179688 C 151.3125 235.179688 157.113281 229.367188 157.113281 222.203125 C 157.113281 215.035156 151.3125 209.222656 144.164062 209.222656"/><path fill="#00597E" d="M 286.609375 235.179688 L 277.976562 235.179688 C 275.597656 235.179688 273.660156 237.121094 273.660156 239.503906 C 273.660156 241.886719 275.597656 243.832031 277.976562 243.832031 L 285.78125 243.832031 C 281.957031 264.566406 264.722656 280.617188 243.445312 282.542969 L 243.445312 274.113281 C 243.445312 271.730469 241.503906 269.785156 239.128906 269.785156 C 236.75 269.785156 234.8125 271.730469 234.8125 274.113281 L 234.8125 282.542969 C 213.53125 280.617188 196.300781 264.566406 192.472656 243.832031 L 200.28125 243.832031 C 202.65625 243.832031 204.597656 241.886719 204.597656 239.503906 C 204.597656 237.121094 202.65625 235.179688 200.28125 235.179688 L 191.644531 235.179688 C 191.644531 210.40625 210.648438 190.011719 234.8125 187.8125 L 234.8125 196.246094 C 234.8125 198.628906 236.75 200.574219 239.128906 200.574219 C 241.503906 200.574219 243.445312 198.628906 243.445312 196.246094 L 243.445312 187.8125 C 267.605469 190.011719 286.609375 210.40625 286.609375 235.179688 Z M 183.011719 235.179688 C 183.011719 266.1875 208.1875 291.417969 239.128906 291.417969 C 270.066406 291.417969 295.242188 266.1875 295.242188 235.179688 C 295.242188 204.171875 270.066406 178.941406 239.128906 178.941406 C 208.1875 178.941406 183.011719 204.171875 183.011719 235.179688"/><path fill="#00597E" d="M 240.054688 233.101562 L 234.085938 224.128906 C 232.753906 222.132812 230.089844 221.609375 228.101562 222.929688 C 226.109375 224.246094 225.589844 226.933594 226.902344 228.925781 L 235.535156 241.90625 C 236.210938 242.917969 237.289062 243.613281 238.503906 243.78125 C 238.722656 243.8125 238.925781 243.832031 239.128906 243.832031 C 240.121094 243.832031 241.117188 243.476562 241.894531 242.835938 L 267.792969 221.203125 C 269.628906 219.667969 269.867188 216.945312 268.347656 215.105469 C 266.8125 213.261719 264.097656 213.027344 262.261719 214.546875 L 240.054688 233.101562"/></svg>