<svg xmlns="http://www.w3.org/2000/svg" width="375" viewBox="0 0 375 375" height="375" version="1.0"><defs><clipPath id="a"><path d="M 96.796875 75 L 278.296875 75 L 278.296875 300 L 96.796875 300 Z M 96.796875 75"/></clipPath></defs><g clip-path="url(#a)"><path fill="#00597E" d="M 96.726562 89.210938 L 96.726562 285.429688 C 96.726562 292.933594 103.097656 299.039062 110.929688 299.039062 L 264.171875 299.039062 C 272 299.039062 278.367188 292.933594 278.367188 285.429688 L 278.367188 123.925781 C 278.367188 123.898438 278.351562 123.878906 278.351562 123.855469 C 278.347656 123.753906 278.320312 123.652344 278.304688 123.550781 C 278.273438 123.253906 278.210938 122.976562 278.105469 122.703125 C 278.078125 122.628906 278.082031 122.542969 278.046875 122.46875 C 278.023438 122.417969 277.980469 122.378906 277.957031 122.324219 C 277.765625 121.941406 277.53125 121.582031 277.207031 121.28125 L 228.753906 76.554688 C 228.449219 76.273438 228.097656 76.070312 227.730469 75.914062 C 227.675781 75.890625 227.632812 75.859375 227.574219 75.839844 C 227.488281 75.804688 227.398438 75.804688 227.308594 75.777344 C 227.050781 75.703125 226.792969 75.65625 226.53125 75.640625 C 226.453125 75.636719 226.386719 75.601562 226.308594 75.601562 L 110.929688 75.601562 C 103.097656 75.601562 96.726562 81.703125 96.726562 89.210938 Z M 229.914062 87.425781 L 265.554688 120.324219 L 236.890625 120.324219 C 233.042969 120.324219 229.910156 117.453125 229.910156 113.921875 L 229.910156 87.425781 Z M 103.925781 89.210938 C 103.925781 85.675781 107.066406 82.800781 110.929688 82.800781 L 222.707031 82.800781 L 222.707031 113.917969 C 222.707031 121.417969 229.070312 127.519531 236.890625 127.519531 L 271.167969 127.519531 L 271.167969 285.425781 C 271.167969 288.960938 268.03125 291.835938 264.175781 291.835938 L 110.929688 291.835938 C 107.070312 291.835938 103.929688 288.960938 103.929688 285.425781 L 103.929688 89.210938 Z M 103.925781 89.210938"/></g><path fill="#00597E" d="M 140.84375 193.363281 C 140.84375 195.355469 142.453125 196.960938 144.445312 196.960938 L 244.226562 196.960938 C 246.21875 196.960938 247.828125 195.355469 247.828125 193.363281 C 247.828125 191.371094 246.21875 189.765625 244.226562 189.765625 L 144.445312 189.765625 C 142.457031 189.765625 140.84375 191.371094 140.84375 193.363281 Z M 140.84375 193.363281"/><path fill="#00597E" d="M 244.226562 220.085938 L 130.667969 220.085938 C 128.679688 220.085938 127.070312 221.695312 127.070312 223.683594 C 127.070312 225.675781 128.679688 227.285156 130.667969 227.285156 L 244.226562 227.285156 C 246.21875 227.285156 247.828125 225.675781 247.828125 223.683594 C 247.828125 221.695312 246.21875 220.085938 244.226562 220.085938 Z M 244.226562 220.085938"/><path fill="#00597E" d="M 244.226562 251.171875 L 130.667969 251.171875 C 128.679688 251.171875 127.070312 252.78125 127.070312 254.769531 C 127.070312 256.761719 128.679688 258.371094 130.667969 258.371094 L 244.226562 258.371094 C 246.21875 258.371094 247.828125 256.761719 247.828125 254.769531 C 247.828125 252.78125 246.21875 251.171875 244.226562 251.171875 Z M 244.226562 251.171875"/><path fill="#00597E" d="M 137.257812 164.136719 C 143.785156 167.089844 151.277344 168.601562 159.097656 168.601562 C 163.21875 168.601562 167.425781 168.183594 171.636719 167.335938 C 187.253906 164.207031 200.578125 155.605469 207.285156 144.320312 C 208.300781 142.609375 207.738281 140.402344 206.027344 139.382812 C 204.316406 138.371094 202.109375 138.933594 201.09375 140.640625 C 195.410156 150.203125 183.871094 157.542969 170.222656 160.273438 C 159.484375 162.425781 148.828125 161.46875 140.222656 157.574219 C 132.027344 153.863281 126.730469 147.921875 125.3125 140.84375 C 123.886719 133.773438 126.484375 126.25 132.617188 119.671875 C 139.058594 112.765625 148.519531 107.773438 159.261719 105.617188 C 175.289062 102.410156 191.453125 106.445312 199.453125 115.644531 C 201.886719 118.464844 203.476562 121.632812 204.175781 125.058594 C 204.574219 127.007812 206.484375 128.261719 208.425781 127.867188 C 210.375 127.46875 211.632812 125.566406 211.230469 123.617188 C 210.285156 118.96875 208.15625 114.703125 204.898438 110.929688 C 195.109375 99.671875 176.640625 94.820312 157.855469 98.5625 C 145.644531 101.015625 134.816406 106.769531 127.355469 114.765625 C 119.597656 123.089844 116.363281 132.855469 118.257812 142.261719 C 120.140625 151.675781 126.886719 159.441406 137.257812 164.136719 Z M 137.257812 164.136719"/><path fill="#00597E" d="M 154.8125 117.722656 C 152.324219 117.722656 150.59375 119.039062 149.628906 121.675781 L 140.890625 145.03125 C 140.683594 145.558594 140.582031 146.144531 140.582031 146.789062 C 140.582031 147.757812 140.917969 148.574219 141.59375 149.246094 C 142.265625 149.917969 143.101562 150.257812 144.09375 150.257812 C 145.882812 150.257812 147.023438 149.4375 147.519531 147.800781 L 148.703125 143.804688 L 160.871094 143.804688 L 162.148438 147.800781 C 162.703125 149.410156 163.785156 150.214844 165.394531 150.214844 C 166.363281 150.214844 167.183594 149.917969 167.859375 149.335938 C 168.5625 148.664062 168.914062 147.945312 168.914062 147.183594 C 168.914062 146.421875 168.796875 145.722656 168.5625 145.078125 L 159.949219 121.679688 C 158.984375 119.039062 157.273438 117.722656 154.8125 117.722656 Z M 150.726562 137.390625 L 154.8125 125.097656 L 158.722656 137.433594 Z M 150.726562 137.390625"/><path fill="#00597E" d="M 178.894531 137.703125 C 180.882812 137.703125 182.496094 136.089844 182.496094 134.105469 L 182.496094 129.6875 L 186.925781 129.6875 C 188.914062 129.6875 190.523438 128.074219 190.523438 126.089844 C 190.523438 124.101562 188.914062 122.488281 186.925781 122.488281 L 182.496094 122.488281 L 182.496094 118.058594 C 182.496094 116.070312 180.882812 114.457031 178.894531 114.457031 C 176.902344 114.457031 175.292969 116.070312 175.292969 118.058594 L 175.292969 122.488281 L 170.878906 122.488281 C 168.886719 122.488281 167.277344 124.101562 167.277344 126.089844 C 167.277344 128.074219 168.886719 129.6875 170.878906 129.6875 L 175.292969 129.6875 L 175.292969 134.105469 C 175.292969 136.09375 176.902344 137.703125 178.894531 137.703125 Z M 178.894531 137.703125"/></svg>