<svg xmlns="http://www.w3.org/2000/svg" width="375" viewBox="0 0 375 375" height="375" version="1.0"><defs><clipPath id="a"><path d="M 65.535156 89.332031 L 309.285156 89.332031 L 309.285156 285.832031 L 65.535156 285.832031 Z M 65.535156 89.332031"/></clipPath></defs><g clip-path="url(#a)"><path fill="#00597E" d="M 285.691406 245.269531 L 89.128906 245.269531 C 80.800781 245.269531 73.976562 238.773438 73.394531 230.574219 L 301.425781 230.574219 C 300.847656 238.773438 294.023438 245.269531 285.691406 245.269531 Z M 199.859375 277.96875 L 174.964844 277.949219 L 174.964844 253.082031 L 199.859375 253.082031 Z M 89.128906 97.15625 L 285.691406 97.15625 C 294.398438 97.15625 301.484375 104.25 301.484375 112.972656 L 301.484375 222.761719 L 73.339844 222.761719 L 73.339844 112.972656 C 73.339844 104.25 80.421875 97.15625 89.128906 97.15625 Z M 285.691406 89.339844 L 89.128906 89.339844 C 76.121094 89.339844 65.535156 99.941406 65.535156 112.972656 L 65.535156 229.449219 C 65.535156 242.480469 76.121094 253.082031 89.128906 253.082031 L 167.164062 253.082031 L 167.164062 277.945312 L 109.421875 277.902344 C 109.417969 277.902344 109.417969 277.902344 109.417969 277.902344 C 107.265625 277.902344 105.515625 279.652344 105.515625 281.808594 C 105.515625 283.96875 107.261719 285.71875 109.414062 285.71875 L 167.164062 285.761719 L 167.164062 285.832031 L 207.660156 285.832031 L 207.660156 285.789062 L 265.402344 285.832031 C 265.402344 285.832031 265.402344 285.832031 265.40625 285.832031 C 267.5625 285.832031 269.304688 284.082031 269.308594 281.925781 C 269.308594 279.769531 267.5625 278.015625 265.410156 278.015625 L 207.660156 277.972656 L 207.660156 253.082031 L 285.691406 253.082031 C 298.703125 253.082031 309.285156 242.480469 309.285156 229.449219 L 309.285156 112.972656 C 309.285156 99.941406 298.703125 89.339844 285.691406 89.339844"/></g><path fill="#00597E" d="M 161.695312 187.8125 L 265.4375 187.8125 C 267.589844 187.8125 269.335938 186.0625 269.335938 183.902344 C 269.335938 181.746094 267.589844 179.996094 265.4375 179.996094 L 161.695312 179.996094 C 159.539062 179.996094 157.792969 181.746094 157.792969 183.902344 C 157.792969 186.0625 159.539062 187.8125 161.695312 187.8125"/><path fill="#00597E" d="M 161.695312 201.066406 L 213.566406 201.066406 C 215.722656 201.066406 217.464844 199.316406 217.464844 197.160156 C 217.464844 195 215.722656 193.25 213.566406 193.25 L 161.695312 193.25 C 159.539062 193.25 157.792969 195 157.792969 197.160156 C 157.792969 199.316406 159.539062 201.066406 161.695312 201.066406"/><path fill="#00597E" d="M 112.507812 210.851562 L 141.75 210.851562 C 145.625 210.851562 148.773438 207.695312 148.773438 203.816406 L 148.773438 191.21875 C 148.773438 189.058594 147.027344 187.308594 144.871094 187.308594 C 142.71875 187.308594 140.972656 189.058594 140.972656 191.21875 L 140.972656 203.035156 L 113.289062 203.035156 L 113.289062 175.304688 L 137.164062 175.304688 C 139.316406 175.304688 141.0625 173.558594 141.0625 171.398438 C 141.0625 169.242188 139.316406 167.492188 137.164062 167.492188 L 112.507812 167.492188 C 108.632812 167.492188 105.484375 170.644531 105.484375 174.527344 L 105.484375 203.816406 C 105.484375 207.695312 108.632812 210.851562 112.507812 210.851562"/><path fill="#00597E" d="M 147.941406 169.964844 L 128.605469 188.082031 L 123.367188 183.9375 C 121.90625 182.78125 119.785156 183.03125 118.632812 184.496094 C 117.476562 185.957031 117.726562 188.082031 119.1875 189.238281 L 126.699219 195.179688 C 127.3125 195.667969 128.054688 195.90625 128.789062 195.90625 C 129.621094 195.90625 130.445312 195.601562 131.09375 194.996094 L 152.546875 174.898438 C 153.90625 173.625 153.980469 171.488281 152.707031 170.125 C 151.433594 168.761719 149.300781 168.691406 147.941406 169.964844"/><path fill="#00597E" d="M 161.914062 128.917969 L 265.65625 128.917969 C 267.808594 128.917969 269.554688 127.167969 269.554688 125.007812 C 269.554688 122.851562 267.808594 121.101562 265.65625 121.101562 L 161.914062 121.101562 C 159.757812 121.101562 158.011719 122.851562 158.011719 125.007812 C 158.011719 127.167969 159.757812 128.917969 161.914062 128.917969"/><path fill="#00597E" d="M 161.914062 142.171875 L 213.785156 142.171875 C 215.9375 142.171875 217.683594 140.421875 217.683594 138.261719 C 217.683594 136.105469 215.9375 134.355469 213.785156 134.355469 L 161.914062 134.355469 C 159.757812 134.355469 158.011719 136.105469 158.011719 138.261719 C 158.011719 140.421875 159.757812 142.171875 161.914062 142.171875"/><path fill="#00597E" d="M 112.726562 151.957031 L 141.96875 151.957031 C 145.84375 151.957031 148.992188 148.800781 148.992188 144.921875 L 148.992188 132.324219 C 148.992188 130.164062 147.246094 128.414062 145.089844 128.414062 C 142.9375 128.414062 141.1875 130.164062 141.1875 132.324219 L 141.1875 144.140625 L 113.503906 144.140625 L 113.503906 116.410156 L 137.382812 116.410156 C 139.535156 116.410156 141.28125 114.664062 141.28125 112.503906 C 141.28125 110.347656 139.535156 108.597656 137.382812 108.597656 L 112.726562 108.597656 C 108.851562 108.597656 105.703125 111.75 105.703125 115.628906 L 105.703125 144.921875 C 105.703125 148.800781 108.851562 151.957031 112.726562 151.957031"/><path fill="#00597E" d="M 123.585938 125.042969 C 122.125 123.886719 120.003906 124.136719 118.851562 125.597656 C 117.695312 127.0625 117.945312 129.1875 119.40625 130.34375 L 126.917969 136.285156 C 127.53125 136.773438 128.269531 137.011719 129.007812 137.011719 C 129.835938 137.011719 130.664062 136.707031 131.308594 136.101562 L 152.765625 116.003906 C 154.125 114.730469 154.195312 112.59375 152.925781 111.230469 C 151.652344 109.867188 149.519531 109.796875 148.160156 111.070312 L 128.820312 129.1875 L 123.585938 125.042969"/></svg>