<svg xmlns="http://www.w3.org/2000/svg" width="375" viewBox="0 0 375 375" height="375" version="1.0"><defs><clipPath id="a"><path d="M 62.8125 182 L 312.5625 182 L 312.5625 312.5625 L 62.8125 312.5625 Z M 62.8125 182"/></clipPath><clipPath id="b"><path d="M 183 62.8125 L 192 62.8125 L 192 91 L 183 91 Z M 183 62.8125"/></clipPath></defs><path fill="#00597E" d="M 91.105469 238.417969 L 99.496094 238.417969 C 94.8125 227.101562 92.078125 214.417969 92.078125 201.34375 C 92.078125 148.664062 135.003906 105.738281 187.6875 105.738281 C 240.367188 105.738281 283.292969 148.664062 283.292969 201.34375 C 283.292969 214.417969 280.5625 227.101562 275.878906 238.417969 L 284.269531 238.417969 C 288.757812 226.90625 291.097656 214.417969 291.097656 201.34375 C 291.097656 144.371094 244.660156 97.933594 187.6875 97.933594 C 130.714844 97.933594 84.273438 144.371094 84.273438 201.34375 C 84.273438 214.417969 86.8125 226.90625 91.105469 238.417969 Z M 91.105469 238.417969"/><g clip-path="url(#a)"><path fill="#00597E" d="M 300.855469 246.222656 L 246.222656 246.222656 L 246.222656 222.808594 C 246.222656 205.636719 236.855469 190.417969 222.808594 182.222656 C 221.050781 184.371094 219.296875 186.320312 217.34375 188.078125 C 229.832031 194.710938 238.417969 207.785156 238.417969 222.808594 L 238.417969 246.222656 L 136.957031 246.222656 L 136.957031 222.808594 C 136.957031 207.785156 145.542969 194.710938 158.03125 188.273438 C 156.078125 186.515625 154.128906 184.566406 152.566406 182.417969 C 138.519531 190.417969 129.152344 205.636719 129.152344 222.808594 L 129.152344 246.222656 L 74.519531 246.222656 C 68.082031 246.222656 62.8125 251.492188 62.8125 257.929688 L 62.8125 300.855469 C 62.8125 307.292969 68.082031 312.5625 74.519531 312.5625 L 300.855469 312.5625 C 307.292969 312.5625 312.5625 307.292969 312.5625 300.855469 L 312.5625 257.929688 C 312.5625 251.492188 307.292969 246.222656 300.855469 246.222656 Z M 304.757812 300.855469 C 304.757812 303 303 304.757812 300.855469 304.757812 L 74.519531 304.757812 C 72.375 304.757812 70.617188 303 70.617188 300.855469 L 70.617188 257.929688 C 70.617188 255.785156 72.375 254.027344 74.519531 254.027344 L 300.855469 254.027344 C 303 254.027344 304.757812 255.785156 304.757812 257.929688 Z M 304.757812 300.855469"/></g><path fill="#00597E" d="M 198.613281 269.441406 L 196.078125 269.050781 L 194.90625 266.320312 C 193.539062 263.589844 190.808594 261.832031 187.882812 261.832031 C 184.957031 261.832031 182.027344 263.589844 180.859375 266.320312 L 179.6875 269.050781 L 177.152344 269.441406 C 174.222656 269.832031 171.882812 271.976562 170.90625 274.710938 C 169.933594 277.441406 170.710938 280.5625 172.664062 282.710938 L 174.808594 284.855469 L 174.222656 287.976562 C 173.835938 290.90625 175.003906 293.832031 177.347656 295.585938 C 178.710938 296.5625 180.273438 296.953125 181.832031 296.953125 C 183.199219 296.953125 184.371094 296.5625 185.542969 295.976562 L 187.882812 294.808594 L 190.222656 295.976562 C 191.394531 296.5625 192.761719 296.953125 193.929688 296.953125 C 195.492188 296.953125 197.054688 296.5625 198.417969 295.585938 C 200.957031 293.832031 202.125 290.90625 201.539062 287.976562 L 200.957031 284.855469 L 203.101562 282.710938 C 205.054688 280.5625 205.832031 277.636719 204.859375 274.710938 C 203.882812 271.78125 201.539062 269.832031 198.613281 269.441406 Z M 193.734375 289.148438 L 187.6875 285.832031 L 181.640625 289.148438 L 182.808594 282.125 L 177.929688 277.050781 L 184.761719 276.074219 L 187.6875 269.636719 L 190.613281 276.074219 L 197.441406 277.050781 L 192.566406 282.125 Z M 193.734375 289.148438"/><path fill="#00597E" d="M 243.492188 269.441406 L 240.953125 269.050781 L 239.785156 266.320312 C 238.417969 263.589844 235.6875 261.832031 232.757812 261.832031 C 229.832031 261.832031 226.90625 263.589844 225.734375 266.320312 L 224.566406 269.050781 L 222.027344 269.441406 C 219.101562 269.832031 216.761719 271.976562 215.785156 274.710938 C 214.808594 277.441406 215.589844 280.5625 217.539062 282.710938 L 219.6875 284.855469 L 219.101562 287.976562 C 218.710938 290.90625 219.882812 293.832031 222.222656 295.585938 C 223.589844 296.5625 225.148438 296.953125 226.710938 296.953125 C 228.078125 296.953125 229.246094 296.5625 230.417969 295.976562 L 232.757812 294.808594 L 235.101562 295.976562 C 236.273438 296.5625 237.636719 296.953125 238.808594 296.953125 C 240.367188 296.953125 241.929688 296.5625 243.296875 295.585938 C 245.832031 293.832031 247.003906 290.90625 246.417969 287.976562 L 245.832031 284.855469 L 247.980469 282.710938 C 249.929688 280.5625 250.710938 277.636719 249.734375 274.710938 C 248.757812 271.78125 246.417969 269.832031 243.492188 269.441406 Z M 238.613281 289.148438 L 232.5625 285.832031 L 226.515625 289.148438 L 227.6875 282.125 L 222.808594 277.050781 L 229.636719 276.074219 L 232.5625 269.636719 L 235.492188 276.074219 L 242.320312 277.050781 L 237.441406 282.125 Z M 238.613281 289.148438"/><path fill="#00597E" d="M 288.367188 269.441406 L 285.832031 269.050781 L 284.660156 266.320312 C 283.292969 263.589844 280.5625 261.832031 277.636719 261.832031 C 274.710938 261.832031 271.78125 263.589844 270.613281 266.320312 L 269.441406 269.050781 L 266.90625 269.441406 C 263.976562 269.832031 261.636719 271.976562 260.660156 274.710938 C 259.6875 277.441406 260.464844 280.5625 262.417969 282.710938 L 264.5625 284.855469 L 263.976562 287.976562 C 263.589844 290.90625 264.757812 293.832031 267.101562 295.585938 C 268.464844 296.5625 270.027344 296.953125 271.585938 296.953125 C 272.953125 296.953125 274.125 296.5625 275.296875 295.976562 L 277.636719 294.808594 L 279.976562 295.976562 C 281.148438 296.5625 282.515625 296.953125 283.683594 296.953125 C 285.246094 296.953125 286.808594 296.5625 288.171875 295.585938 C 290.710938 293.832031 291.878906 290.90625 291.292969 287.976562 L 290.710938 284.855469 L 292.855469 282.710938 C 294.808594 280.5625 295.585938 277.636719 294.613281 274.710938 C 293.636719 271.78125 291.292969 269.832031 288.367188 269.441406 Z M 283.488281 289.148438 L 277.441406 285.832031 L 271.394531 289.148438 L 272.5625 282.125 L 267.683594 277.050781 L 274.515625 276.074219 L 277.441406 269.636719 L 280.367188 276.074219 L 287.195312 277.050781 L 282.320312 282.125 Z M 283.488281 289.148438"/><path fill="#00597E" d="M 108.859375 269.441406 L 106.324219 269.050781 L 105.152344 266.320312 C 103.785156 263.589844 101.054688 261.832031 98.128906 261.832031 C 95.203125 261.832031 92.273438 263.589844 91.105469 266.320312 L 89.933594 269.050781 L 87.398438 269.441406 C 84.46875 269.832031 82.128906 271.976562 81.152344 274.710938 C 80.179688 277.441406 80.957031 280.5625 82.910156 282.710938 L 85.054688 284.855469 L 84.46875 287.976562 C 84.082031 290.90625 85.25 293.832031 87.59375 295.585938 C 88.957031 296.5625 90.519531 296.953125 92.078125 296.953125 C 93.445312 296.953125 94.617188 296.5625 95.789062 295.976562 L 98.128906 294.808594 L 100.46875 295.976562 C 101.640625 296.5625 103.007812 296.953125 104.175781 296.953125 C 105.738281 296.953125 107.300781 296.5625 108.664062 295.585938 C 111.203125 293.832031 112.371094 290.90625 111.785156 287.976562 L 111.203125 284.855469 L 113.347656 282.710938 C 115.300781 280.5625 116.078125 277.636719 115.105469 274.710938 C 114.128906 271.78125 111.785156 269.832031 108.859375 269.441406 Z M 103.980469 289.148438 L 97.933594 285.832031 L 91.886719 289.148438 L 93.054688 282.125 L 88.175781 277.050781 L 95.007812 276.074219 L 97.933594 269.636719 L 100.859375 276.074219 L 107.6875 277.050781 L 102.8125 282.125 Z M 103.980469 289.148438"/><path fill="#00597E" d="M 153.738281 269.441406 L 151.199219 269.050781 L 150.03125 266.320312 C 148.664062 263.589844 145.933594 261.832031 143.003906 261.832031 C 140.078125 261.832031 137.152344 263.589844 135.980469 266.320312 L 134.8125 269.050781 L 132.273438 269.441406 C 129.347656 269.832031 127.007812 271.976562 126.03125 274.710938 C 125.054688 277.441406 125.835938 280.5625 127.785156 282.710938 L 129.933594 284.855469 L 129.347656 287.976562 C 128.957031 290.90625 130.128906 293.832031 132.46875 295.585938 C 133.835938 296.5625 135.394531 296.953125 136.957031 296.953125 C 138.324219 296.953125 139.492188 296.5625 140.664062 295.976562 L 143.003906 294.808594 L 145.347656 295.976562 C 146.519531 296.5625 147.882812 296.953125 149.054688 296.953125 C 150.617188 296.953125 152.175781 296.5625 153.542969 295.585938 C 156.078125 293.832031 157.25 290.90625 156.664062 287.976562 L 156.078125 284.855469 L 158.226562 282.710938 C 160.175781 280.5625 160.957031 277.636719 159.980469 274.710938 C 159.003906 271.78125 156.664062 269.832031 153.738281 269.441406 Z M 148.859375 289.148438 L 142.808594 285.832031 L 136.761719 289.148438 L 137.933594 282.125 L 133.054688 277.050781 L 139.882812 276.074219 L 142.808594 269.636719 L 145.738281 276.074219 L 152.566406 277.050781 L 147.6875 282.125 Z M 148.859375 289.148438"/><path fill="#00597E" d="M 150.613281 154.515625 C 150.613281 175.003906 167.199219 191.589844 187.6875 191.589844 C 208.175781 191.589844 224.757812 175.003906 224.757812 154.515625 C 224.757812 134.03125 208.175781 117.445312 187.6875 117.445312 C 167.199219 117.445312 150.613281 134.03125 150.613281 154.515625 Z M 216.953125 154.515625 C 216.953125 170.710938 203.882812 183.785156 187.6875 183.785156 C 171.492188 183.785156 158.417969 170.710938 158.417969 154.515625 C 158.417969 138.324219 171.492188 125.25 187.6875 125.25 C 203.882812 125.25 216.953125 138.324219 216.953125 154.515625 Z M 216.953125 154.515625"/><g clip-path="url(#b)"><path fill="#00597E" d="M 187.6875 90.128906 C 189.832031 90.128906 191.589844 88.371094 191.589844 86.226562 L 191.589844 66.714844 C 191.589844 64.570312 189.832031 62.8125 187.6875 62.8125 C 185.542969 62.8125 183.785156 64.570312 183.785156 66.714844 L 183.785156 86.226562 C 183.785156 88.371094 185.542969 90.128906 187.6875 90.128906 Z M 187.6875 90.128906"/></g><path fill="#00597E" d="M 277.441406 131.101562 C 278.417969 131.101562 279.390625 130.714844 280.171875 129.933594 L 295.78125 114.324219 C 297.34375 112.761719 297.34375 110.421875 295.78125 108.859375 C 294.222656 107.300781 291.878906 107.300781 290.320312 108.859375 L 274.710938 124.46875 C 273.148438 126.03125 273.148438 128.371094 274.710938 129.933594 C 275.488281 130.714844 276.464844 131.101562 277.441406 131.101562 Z M 277.441406 131.101562"/><path fill="#00597E" d="M 95.203125 129.933594 C 96.761719 131.492188 99.300781 131.492188 100.664062 129.933594 C 102.226562 128.371094 102.226562 126.03125 100.664062 124.46875 L 85.054688 108.859375 C 83.496094 107.300781 81.152344 107.300781 79.59375 108.859375 C 78.03125 110.421875 78.03125 112.761719 79.59375 114.324219 C 79.59375 114.324219 95.203125 129.933594 95.203125 129.933594 Z M 95.203125 129.933594"/></svg>