<svg xmlns="http://www.w3.org/2000/svg" xmlns:xlink="http://www.w3.org/1999/xlink" width="1080" zoomAndPan="magnify" viewBox="0 0 810 809.999993" height="1080" preserveAspectRatio="xMidYMid meet" version="1.0"><path fill="#00597e" d="M 165.285156 386.355469 C 169.109375 386.355469 175.730469 389.832031 176.773438 394.347656 C 176.949219 394.695312 176.949219 395.21875 176.949219 395.566406 C 176.949219 397.824219 175.382812 400.429688 171.210938 402.691406 C 167.042969 405.121094 160.59375 406.6875 152.945312 407.730469 C 152.425781 412.941406 151.902344 418.171875 151.207031 423.382812 C 156.074219 422.515625 160.070312 421.472656 162.871094 420.082031 C 163.390625 419.910156 164.085938 419.734375 164.78125 419.734375 C 168.605469 419.734375 175.054688 423.210938 176.097656 427.726562 C 176.269531 428.074219 176.269531 428.597656 176.269531 428.945312 C 176.269531 431.203125 174.707031 433.808594 170.535156 436.070312 C 165.496094 438.847656 158.003906 440.585938 148.964844 441.453125 C 145.492188 468.058594 141.667969 489.8125 141.667969 489.8125 C 126.53125 489.8125 124.792969 485.988281 122.183594 474.328125 C 122.183594 474.15625 122.011719 473.808594 122.011719 473.289062 C 122.011719 469.8125 123.75 457.980469 125.488281 442.496094 C 119.054688 442.496094 112.609375 442.324219 106.351562 442.148438 C 103.050781 466.492188 99.746094 485.796875 99.746094 485.796875 C 84.609375 485.796875 82.871094 481.976562 80.09375 470.140625 L 80.09375 469.621094 C 80.09375 466.667969 81.65625 455.355469 83.394531 440.570312 C 70.515625 439.351562 61.652344 438.136719 61.652344 438.136719 C 58.523438 438.136719 56.960938 436.226562 56.4375 433.792969 C 56.265625 433.097656 56.265625 432.226562 56.265625 431.535156 C 56.265625 428.753906 56.960938 425.972656 58.351562 424.0625 C 58.523438 423.539062 60.609375 423.367188 63.910156 423.367188 C 68.777344 423.367188 76.269531 423.714844 85.132812 424.0625 C 85.652344 418.675781 86.175781 413.097656 86.695312 407.363281 C 72.425781 406.148438 62.171875 404.929688 62.171875 404.929688 C 59.21875 404.929688 57.828125 403.019531 57.132812 400.585938 C 56.960938 399.890625 56.960938 399.195312 56.960938 398.328125 C 56.960938 395.722656 57.828125 392.59375 58.871094 390.683594 C 59.21875 390.160156 61.304688 389.988281 64.78125 389.988281 C 69.820312 389.988281 78.007812 390.507812 87.566406 390.855469 C 87.738281 385.816406 87.914062 380.933594 87.914062 376.070312 C 87.914062 363.890625 87.21875 352.59375 85.132812 343.890625 L 85.132812 343.367188 C 85.132812 340.242188 90.867188 336.59375 97.140625 336.59375 C 103.050781 336.59375 109.324219 339.71875 111.582031 349.46875 C 112.625 353.984375 112.972656 360.605469 112.972656 368.425781 C 112.972656 375.375 112.625 383.210938 112.105469 391.550781 C 118.015625 391.726562 123.941406 391.726562 129.675781 391.726562 C 129.847656 387.382812 130.023438 383.039062 130.023438 378.851562 C 130.023438 367.191406 129.152344 356.417969 127.242188 347.886719 L 127.242188 347.191406 C 127.242188 344.238281 132.804688 340.761719 139.078125 340.761719 C 144.988281 340.761719 151.261719 343.890625 153.519531 353.636719 C 154.5625 358.15625 155.085938 364.601562 155.085938 372.246094 C 155.085938 377.460938 154.738281 383.386719 154.390625 389.464844 C 158.210938 388.773438 161.339844 387.902344 163.617188 386.6875 C 164.140625 386.511719 164.660156 386.339844 165.355469 386.339844 Z M 128.582031 409.136719 L 123.714844 409.136719 C 119.371094 409.136719 114.851562 408.960938 110.316406 408.789062 C 109.792969 414.175781 109.273438 419.578125 108.578125 424.964844 C 114.832031 425.140625 121.105469 425.140625 127.363281 425.140625 C 127.710938 419.925781 128.234375 414.523438 128.582031 409.136719 Z M 128.582031 409.136719 " fill-opacity="1" fill-rule="nonzero"/><path fill="#00597e" d="M 380.148438 402.515625 C 382.058594 410.683594 382.929688 419.5625 382.929688 428.421875 C 382.929688 465.121094 367.269531 503.730469 336.472656 503.730469 C 316.816406 503.730469 305.15625 487.902344 300.289062 467.03125 C 298.550781 459.386719 297.683594 450.855469 297.683594 442.167969 C 297.683594 404.425781 314.558594 363.039062 343.269531 363.039062 C 362.75 363.039062 374.933594 380.082031 380.148438 402.515625 Z M 354.757812 406.339844 C 354.757812 398.519531 354.234375 391.726562 353.019531 386.6875 C 351.800781 381.125 349.714844 377.824219 346.585938 377.824219 C 336.664062 377.824219 329.363281 426.355469 329.363281 460.097656 C 329.363281 469.847656 329.886719 478.359375 331.277344 484.09375 C 332.492188 489.132812 334.230469 492.089844 336.492188 492.089844 C 345.007812 492.089844 354.757812 440.257812 354.757812 406.339844 Z M 354.757812 406.339844 " fill-opacity="1" fill-rule="nonzero"/><path fill="#00597e" d="M 452.339844 373.65625 C 451.992188 372.265625 451.820312 370.699219 451.820312 369.484375 C 451.820312 366.007812 452.863281 363.402344 454.773438 362.707031 L 454.949219 362.707031 C 455.46875 362.707031 455.992188 363.054688 455.992188 363.578125 L 456.339844 364.792969 C 456.6875 366.183594 457.382812 367.574219 459.640625 367.574219 C 464.332031 367.574219 466.941406 352.785156 466.941406 339.042969 C 466.941406 333.132812 466.59375 327.382812 465.550781 323.214844 C 464.507812 318.695312 462.941406 315.742188 460.683594 315.742188 C 441.550781 315.742188 423.109375 383.578125 423.109375 433.671875 C 423.109375 444.460938 423.976562 454.539062 425.890625 462.898438 C 429.191406 476.988281 435.464844 486.199219 445.546875 486.199219 C 472.867188 486.199219 482.25 447.242188 482.25 434.714844 L 482.25 434.019531 C 482.25 433.148438 482.945312 432.628906 483.640625 432.628906 C 483.988281 432.628906 484.335938 432.628906 484.511719 432.800781 C 487.640625 434.367188 492.503906 437.667969 493.914062 443.765625 C 494.085938 444.460938 494.085938 445.503906 494.085938 446.71875 C 494.085938 460.8125 482.597656 504.285156 451.300781 504.285156 C 420 504.285156 401.890625 482.546875 395.109375 453.324219 C 392.851562 443.226562 391.808594 432.105469 391.808594 420.796875 C 391.808594 364.96875 417.546875 301.648438 446.605469 301.648438 C 468.695312 301.648438 480.53125 318 484.703125 336.609375 C 485.917969 341.996094 486.613281 347.746094 486.613281 353.132812 C 486.613281 371.394531 479.835938 387.398438 468.871094 387.398438 C 458.945312 387.398438 453.730469 380.273438 452.339844 373.65625 Z M 452.339844 373.65625 " fill-opacity="1" fill-rule="nonzero"/><path fill="#00597e" d="M 599.335938 386.878906 C 600.207031 390.527344 600.554688 394.175781 600.554688 397.84375 C 600.554688 410.023438 595.859375 420.796875 587.328125 420.796875 C 577.402344 420.796875 574.972656 415.0625 574.277344 412.628906 L 574.277344 411.933594 C 574.277344 411.761719 574.101562 411.761719 574.101562 411.585938 C 574.101562 411.414062 574.277344 411.238281 574.277344 411.238281 C 574.972656 409.847656 578.273438 403.417969 578.273438 398.535156 C 578.273438 398.015625 578.273438 397.320312 578.097656 396.800781 C 577.578125 394.714844 576.011719 393.152344 572.710938 393.152344 C 557.050781 393.152344 536.007812 442.203125 536.007812 476.46875 C 536.007812 481.332031 536.355469 486.042969 537.394531 490.210938 C 538.785156 495.945312 540.871094 499.960938 544.175781 501 C 544.523438 501.175781 544.695312 501.347656 544.871094 501.695312 C 544.871094 501.871094 544.871094 502.042969 544.523438 502.21875 C 543.132812 503.261719 540.523438 504.304688 536.699219 504.304688 C 530.445312 504.304688 514.960938 504.304688 508.164062 477.335938 L 507.992188 476.46875 C 506.078125 468.125 505.382812 458.03125 505.382812 447.066406 C 505.382812 409.328125 514.785156 363.75 519.824219 363.75 C 534.789062 363.75 543.304688 371.394531 545.566406 380.796875 L 545.566406 381.492188 C 544.347656 384.097656 541.046875 400.449219 538.785156 420.273438 C 546.433594 392.089844 558.441406 363.75 575.316406 363.75 C 588.71875 363.75 596.363281 374.539062 599.320312 386.878906 Z M 599.335938 386.878906 " fill-opacity="1" fill-rule="nonzero"/><path fill="#00597e" d="M 687.882812 455.390625 C 688.40625 457.476562 688.578125 460.082031 688.578125 463.035156 C 688.578125 479.039062 680.410156 504.078125 659.347656 504.078125 C 630.8125 504.078125 615.167969 483.902344 609.417969 458.675781 C 607.679688 450.855469 606.808594 442.671875 606.808594 434.503906 C 606.808594 399.023438 622.292969 363.367188 646.296875 363.367188 C 668.039062 363.367188 678.65625 374.332031 681.957031 388.929688 C 682.480469 391.1875 682.828125 393.621094 682.828125 396.226562 C 682.828125 417.441406 665.429688 446.320312 637.414062 450.492188 C 637.589844 456.917969 638.457031 463.191406 639.675781 468.578125 C 642.628906 481.453125 648.539062 490.488281 657.941406 490.488281 C 673.25 490.488281 684.027344 465.972656 684.027344 453.097656 C 684.027344 452.054688 684.027344 451.183594 683.851562 450.316406 L 683.851562 450.144531 C 683.851562 449.96875 684.027344 449.796875 684.375 449.796875 C 685.9375 450.316406 687.15625 452.226562 687.851562 455.355469 Z M 637.433594 439.386719 C 660.390625 432.957031 666.839844 408.25 666.839844 392.59375 C 666.839844 388.945312 666.492188 385.816406 665.96875 383.542969 C 665.273438 380.761719 664.40625 379.023438 663.363281 379.023438 C 648.574219 379.023438 638.667969 409.988281 637.449219 439.371094 Z M 637.433594 439.386719 " fill-opacity="1" fill-rule="nonzero"/><path fill="#00597e" d="M 780.96875 402.515625 C 782.878906 410.683594 783.75 419.5625 783.75 428.421875 C 783.75 465.121094 768.089844 503.730469 737.292969 503.730469 C 717.636719 503.730469 705.976562 487.902344 701.109375 467.03125 C 699.371094 459.386719 698.503906 450.855469 698.503906 442.167969 C 698.503906 404.425781 715.378906 363.039062 744.089844 363.039062 C 763.570312 363.039062 775.753906 380.082031 780.96875 402.515625 Z M 755.578125 406.339844 C 755.578125 398.519531 755.054688 391.726562 753.839844 386.6875 C 752.625 381.125 750.539062 377.824219 747.410156 377.824219 C 737.484375 377.824219 730.1875 426.355469 730.1875 460.097656 C 730.1875 469.847656 730.707031 478.359375 732.097656 484.09375 C 733.316406 489.132812 735.050781 492.089844 737.3125 492.089844 C 745.828125 492.089844 755.578125 440.257812 755.578125 406.339844 Z M 755.578125 406.339844 " fill-opacity="1" fill-rule="nonzero"/><path fill="#00597e" d="M 294.449219 326.113281 C 294.449219 326.652344 294.101562 327 293.738281 327.523438 C 285.777344 337.0625 304.878906 520.808594 236.472656 520.808594 C 212.976562 520.808594 205.1875 499.613281 202.007812 486.894531 L 202.007812 486.546875 C 202.007812 486.007812 202.53125 485.660156 203.070312 485.660156 C 252.027344 484.945312 262.089844 435.652344 264.035156 388.667969 C 258.195312 417.460938 247.074219 446.617188 225.871094 446.617188 C 205.902344 446.617188 195.820312 433.359375 191.582031 414.992188 C 189.632812 406.859375 188.921875 397.496094 188.921875 387.953125 C 188.921875 353.863281 198.636719 315.515625 201.46875 305.089844 C 201.46875 304.570312 202.007812 304.203125 202.53125 304.203125 C 220.203125 304.378906 228.6875 309.851562 231.867188 323.457031 C 232.039062 324.34375 232.214844 325.75 232.214844 327.347656 C 232.214844 341.839844 223.558594 379.996094 223.558594 403.316406 C 223.558594 407.730469 223.90625 411.445312 224.617188 414.625 C 225.679688 419.578125 227.800781 422.585938 231.5 422.585938 C 251.46875 422.585938 257.308594 304.203125 271.089844 304.203125 C 282.40625 304.203125 291.773438 313.742188 293.894531 322.933594 C 294.242188 323.996094 294.242188 324.882812 294.433594 325.765625 L 294.433594 326.113281 Z M 294.449219 326.113281 " fill-opacity="1" fill-rule="nonzero"/></svg>