<svg xmlns="http://www.w3.org/2000/svg" xmlns:xlink="http://www.w3.org/1999/xlink" width="110.766" height="37.982" viewBox="0 0 110.766 37.982">
  <defs>
    <clipPath id="clip-path">
      <rect id="Rectángulo_508" data-name="Rectángulo 508" width="110.766" height="37.982" fill="none"/>
    </clipPath>
  </defs>
  <g id="Grupo_11043" data-name="Grupo 11043" transform="translate(0 0)">
    <g id="Grupo_10837" data-name="Grupo 10837" transform="translate(0 0)" clip-path="url(#clip-path)">
      <path id="Trazado_10103" data-name="Trazado 10103" d="M28.115,2.934a10.769,10.769,0,0,1,1.663,2.6,11.311,11.311,0,0,1,.905,2.86.891.891,0,0,0,.029.5c.058.253.126.534.2.846s.155.623.233.933a3.224,3.224,0,0,1,.117.7,4.363,4.363,0,0,1,.059.7v.7a28.565,28.565,0,0,1-.147,2.89q-.147,1.431-.263,2.889a10.38,10.38,0,0,0,1.43-2.13A6.287,6.287,0,0,1,33.952,14.4a10.65,10.65,0,0,1,.67-1.343,10.872,10.872,0,0,0,.671-1.342l.175-.117q.408-.933,1.081-2.247t1.283-2.743q.613-1.43,1.051-2.773c.293-.894.2-1.714.438-2.334,1.284-3.417,3.531.058,3.531.058A13.361,13.361,0,0,1,43.7,4.042a14.21,14.21,0,0,1,.35,2.014l-.233.525L43.7,6.64v.526a.556.556,0,0,1,.175.408,5.742,5.742,0,0,1-.466,2.1,16.239,16.239,0,0,1-.935,1.985,1.047,1.047,0,0,1-.175.642,2.045,2.045,0,0,0-.292.584,27.208,27.208,0,0,1-2.218,4.377q-1.575,2.626-3.472,5.34T32.493,27.71a39.891,39.891,0,0,1-3.269,3.677L28.7,31.5l-.292.233a.254.254,0,0,1-.058.35c-.116.116-.213.213-.291.292l.175.583h-.409l-.117-.233-.117.058-.759.876-.292-.234-.35.117-.116.234h.35a.118.118,0,0,0,.029.088.117.117,0,0,1,.029.087c0,.117-.156.263-.466.438a3.234,3.234,0,0,0-.584.379,24.076,24.076,0,0,1-2.277,1.459,15.567,15.567,0,0,1-2.159.992,11.493,11.493,0,0,1-2.306.584,18.812,18.812,0,0,1-2.714.175,5.693,5.693,0,0,1-1.956-.35s-2.5-1.408-1.107-3.385a2.762,2.762,0,0,1,3.443-.993,1.86,1.86,0,0,0,1.312.409,3.693,3.693,0,0,0,2.306-.9,14.18,14.18,0,0,0,2.159-2.16q1.021-1.256,1.9-2.568t1.517-2.189a7.593,7.593,0,0,1-1.2-2.422,30.205,30.205,0,0,1-.846-3.3q-.349-1.751-.525-3.414a27.362,27.362,0,0,1-.175-2.773,23.1,23.1,0,0,1,.35-4.027,23.093,23.093,0,0,0,.35-4.028V4.918a4.982,4.982,0,0,0-.116-1.08A2.655,2.655,0,0,1,25.35,1.447a2.758,2.758,0,0,1,2.765,1.487M22.4,32.146a5.882,5.882,0,0,0,1.371-.876,8.362,8.362,0,0,0,1.138-1.2q.526-.672,1.021-1.342t1.021-1.255c.039-.117.078-.244.118-.379a1.425,1.425,0,0,0,.058-.379h-.35a.712.712,0,0,0-.525.467,3.774,3.774,0,0,1-.584.933q-.526.7-1.168,1.518t-1.254,1.547q-.612.729-.846.963m3.326,1.926-.116-.117-.059.117.117.175Zm1.051-1.343-.349-.234-.059.292.35.175Zm.175-.992c.078.194.195.292.35.292A.121.121,0,0,0,27.385,32a.114.114,0,0,1,.087-.029l-.2-.2a.284.284,0,0,0-.2-.087Zm1.4-.934L28,31.27l-.059.292.059.059.467-.642Zm.117-3.094c.077-.078.175-.175.292-.292a.5.5,0,0,0,.175-.35ZM29.4,31.8l-.409.35-.058-.117v-.117l.351-.175ZM40.605,16.971c-.079.156-.185.37-.321.642s-.283.554-.438.846-.312.554-.466.788a3.71,3.71,0,0,1-.409.525q-.644,1.168-1.781,2.86t-2.422,3.415a40.313,40.313,0,0,1-2.627,3.181,14.037,14.037,0,0,1-2.393,2.16l-.117-.117a6.11,6.11,0,0,1,.9-.846,6.337,6.337,0,0,0,.9-.846q1.167-1.4,2.393-2.86a31.027,31.027,0,0,0,2.218-2.977q1.167-1.691,2.218-3.473T40.488,16.8ZM30.041,29.4l-.059-.117-.175.117v.058l.059.117Zm.175-10.973-.059-.233a.741.741,0,0,1-.057.263.7.7,0,0,0-.059.263v.409H30.1Zm.059,10.564a8.267,8.267,0,0,0,1.664-1.634q1.078-1.285,2.218-2.86t2.1-3.093q.963-1.517,1.313-2.218a26.731,26.731,0,0,1-1.78,2.335q-1.08,1.285-2.13,2.568t-1.984,2.568a13.089,13.089,0,0,0-1.4,2.334m.116-12.14c-.039,0-.058.039-.058.117Zm.059,4.319a.805.805,0,0,0,.32-.2l.263-.263a3.8,3.8,0,0,0-.467.876,2.661,2.661,0,0,0-.175.934v.175l.584-.992.292-.175a2.772,2.772,0,0,1,.262-.584,1.957,1.957,0,0,1,.438-.467,9.722,9.722,0,0,0,.554-.992q.32-.642.789-.642l.291-.175h.292l-.292-.117-.058-.409a1.577,1.577,0,0,0,.437-.525,5.282,5.282,0,0,0,.233-.525,1.478,1.478,0,0,1,.263-.438.916.916,0,0,1,.583-.263c0-.078-.049-.125-.145-.146a1.387,1.387,0,0,0-.263-.029l-.116-.234a1.635,1.635,0,0,1,.408-.642q-1.284,1.344-2.481,2.8a17.459,17.459,0,0,0-2.013,3.035m.35-5.311-.117-.292-.175.175.234.35Zm.058,8.7-.058-.116-.117.175.058.117Zm.058-13.832a.632.632,0,0,0-.175.467.935.935,0,0,0,.117.409,1.018,1.018,0,0,0,.058-.409Zm-.175,3.327a9.211,9.211,0,0,0,.175-1.809,1.921,1.921,0,0,0-.117-.467q0,.584-.029,1.138t-.029,1.138m4.669,4.494a2.915,2.915,0,0,0-.759.817l.584-.35c-.156.2-.3.379-.438.555a1.139,1.139,0,0,1-.555.379,2.337,2.337,0,0,1-.35.992,2.369,2.369,0,0,1-.759.759,10.274,10.274,0,0,1-1.109,1.75,16.428,16.428,0,0,0-1.167,1.693,17.97,17.97,0,0,0,2.627-3.035q1.167-1.692,2.16-3.385Zm-3.5,1.051a4.277,4.277,0,0,1-.234.38q-.176.262-.292.262Zm0-.175.758-.876-.349.584Zm.641,2.919a.694.694,0,0,0-.466.525l.292-.233Zm.876-4.786a.841.841,0,0,1-.467.583Zm.526-.817.175-.292.116.117-.116.292Zm1.809,1.634.117.058.175-.233-.116-.059Zm1.284-6.42.118.175.058-.117-.117-.175Zm5.195,1.926q-.351.584-.7,1.138a4.391,4.391,0,0,0-.525,1.2l-.117-.058c.038-.078.117-.252.233-.525l.35-.817c.117-.272.234-.526.35-.759s.213-.35.292-.35Zm.933-1.984a.4.4,0,0,1-.117.292l-.233.233h-.058Zm.234-4.845V6.932l-.175-.058-.117.175.175.117Z" transform="translate(-5.809 0)" fill="#620627"/>
      <path id="Trazado_10104" data-name="Trazado 10104" d="M3.344,31.574H.435a1.049,1.049,0,0,1-.369-.042q-.1-.043-.053-.358l.169-1.265A.5.5,0,0,1,.319,29.6a.545.545,0,0,1,.327-.074H3.512l.169-2.867H.919a1.258,1.258,0,0,1-.348-.032Q.476,26.6.5,26.282L.687,25A.438.438,0,0,1,.825,24.7a.61.61,0,0,1,.326-.064H3.807l.274-3.668a.575.575,0,0,1,.1-.317.447.447,0,0,1,.327-.084H5.958c.154,0,.242.035.263.105a1.083,1.083,0,0,1,.011.358l-.274,3.6,2.509.021.274-3.689a.664.664,0,0,1,.085-.317c.042-.056.154-.084.337-.084H10.6c.169,0,.263.035.285.105a.9.9,0,0,1-.011.358L10.6,24.659h3.12a.9.9,0,0,1,.538.074.213.213,0,0,1,.052.264l-.169,1.349c-.014.141-.063.229-.148.264a.663.663,0,0,1-.253.053H10.49L10.3,29.55h2.91a.9.9,0,0,1,.538.074.264.264,0,0,1,.073.284l-.189,1.349c-.014.141-.06.229-.137.264a.638.638,0,0,1-.264.052h-3.1L9.9,35.136a.838.838,0,0,1-.073.211c-.035.071-.131.105-.285.105H8.15a.339.339,0,0,1-.295-.116.862.862,0,0,1-.064-.495L8,31.574H5.515l-.253,3.563a.663.663,0,0,1-.084.211c-.042.071-.141.105-.3.105H3.491a.341.341,0,0,1-.3-.116.863.863,0,0,1-.063-.495Zm2.319-2.045,2.509.021.169-2.888H5.831Z" transform="translate(0 -9.566)" fill="#a80b38"/>
      <path id="Trazado_10105" data-name="Trazado 10105" d="M71.824,35.194a3.692,3.692,0,0,1-1.894-.5,5.408,5.408,0,0,1-1.483-1.268,5.93,5.93,0,0,1-1.3-3.662,11.91,11.91,0,0,1,.679-3.7A16.033,16.033,0,0,1,69.7,22.206a12.485,12.485,0,0,1,2.8-3.037A5.632,5.632,0,0,1,76,17.937a6.111,6.111,0,0,1,3.358.982,5.753,5.753,0,0,1,2.251,2.7l-.072.25a.553.553,0,0,1,.107.393,6.1,6.1,0,0,1-.178,1.447,6.052,6.052,0,0,0-.179,1.447v.071l.107-.036.072-.179a.153.153,0,0,0,.018.072.163.163,0,0,1,.018.072,4.366,4.366,0,0,1-.16,1.107q-.161.608-.34,1.108a13.9,13.9,0,0,1-1.393,2.786A12.954,12.954,0,0,1,77.5,32.675,10.786,10.786,0,0,1,74.843,34.5a6.878,6.878,0,0,1-3.019.7m1.143-15.006a3.03,3.03,0,0,1-.643.768q-.393.34-.858.768a6.935,6.935,0,0,0-.893,1.018,5.117,5.117,0,0,0-.715,1.554,1.073,1.073,0,0,0,.233-.232,2.1,2.1,0,0,0,.16-.268,14.856,14.856,0,0,1,1.483-1.911l1.626-1.769ZM70.288,22.9c-.048.1-.119.227-.215.393s-.167.3-.215.394Zm.25-.429.036.107.072-.107-.036-.071Zm.679,2.537q.428-.607.8-1.251t.768-1.25c-.071.024-.191.149-.357.375a8.7,8.7,0,0,0-.5.768q-.25.428-.464.822a2.9,2.9,0,0,0-.25.536M72.11,26.9v-.071a.217.217,0,0,1-.089.053.083.083,0,0,0-.053.089h.072ZM75,21.759a13.388,13.388,0,0,0-1.572,2.126,16.262,16.262,0,0,0-1.143,2.376l-.035.036h.035l.822-1.644a7.937,7.937,0,0,1,.965-1.429A6.35,6.35,0,0,0,75,21.759m1.607-.607a3.248,3.248,0,0,0-1.268,1.072,17.957,17.957,0,0,0-2.518,4.162,4.705,4.705,0,0,0-.464,1.626c0,.048.012.071.036.071a7.543,7.543,0,0,0,.5-1.394,5.548,5.548,0,0,1,.535-1.357,10.074,10.074,0,0,1,1.519-2.126,19.215,19.215,0,0,0,1.661-2.054m1.716,1.287v-.983a3.205,3.205,0,0,0-.143-.947.071.071,0,0,1-.053-.018.074.074,0,0,0-.053-.018.959.959,0,0,0-.5.25q-.322.25-.679.571t-.679.643a5.446,5.446,0,0,0-.429.465,10.5,10.5,0,0,0-1.161,1.644,19.4,19.4,0,0,0-1.072,2.108,18.326,18.326,0,0,0-.8,2.215,7.147,7.147,0,0,0-.321,1.965v.518a5.657,5.657,0,0,0,.053.768,3.553,3.553,0,0,0,.16.7c.072.2.166.3.286.3a.69.69,0,0,0,.286-.089.986.986,0,0,0,.25-.16,6.361,6.361,0,0,0,1.983-1.911,11.876,11.876,0,0,0,1.143-2.305q.446-1.213.786-2.483a14.027,14.027,0,0,1,.947-2.518Zm-2.287,8.4a3.322,3.322,0,0,0,.518-.608,8.76,8.76,0,0,0,.572-.929,9.347,9.347,0,0,0,.464-1,3.488,3.488,0,0,0,.232-.786l-.071-.179-.393.679.357-.572a5.8,5.8,0,0,1-.84,1.7,5.8,5.8,0,0,0-.839,1.7M78.648,27.8a2.947,2.947,0,0,1-.268.786,7.485,7.485,0,0,0-.34.786V29.4c.024,0,.083-.089.179-.268s.19-.381.286-.607.19-.447.286-.661.166-.369.215-.464Zm2.572-2.286a.144.144,0,0,0-.143.125,1.181,1.181,0,0,1-.072.2,15.912,15.912,0,0,1-1.178,2.734,28.626,28.626,0,0,0-1.287,2.661,6.983,6.983,0,0,0,.715-1.125q.322-.624.607-1.268t.536-1.215a5.119,5.119,0,0,1,.536-.964,3.23,3.23,0,0,1,.125-.572q.088-.286.16-.571m-1.286,1.821q-.322.751-.715,1.465a10.715,10.715,0,0,0-.679,1.5c.072-.024.2-.2.393-.536s.381-.7.571-1.09.363-.768.518-1.125a2.53,2.53,0,0,0,.232-.679v-.035a.581.581,0,0,1-.25.357l-.035-.072-.108.036Zm-.893-.286.108.072.071-.107v-.143l-.143.072Z" transform="translate(-31.226 -8.342)" fill="#620627"/>
      <path id="Trazado_10106" data-name="Trazado 10106" d="M104.232,29.444a3.311,3.311,0,0,1-1.09-.179q-.518-.179-1.054-.321a8.859,8.859,0,0,1-2.733-1.268,7.857,7.857,0,0,1-2-2.018,9.021,9.021,0,0,1-1.215-2.608,10.807,10.807,0,0,1-.411-3,15.836,15.836,0,0,1,.59-4.091A23.541,23.541,0,0,1,97.98,11.6a28.342,28.342,0,0,1,2.536-4.163,22.073,22.073,0,0,1,3.234-3.555,15.325,15.325,0,0,1,3.769-2.466A9.825,9.825,0,0,1,111.628.5a10.374,10.374,0,0,1,1.25.089,7.9,7.9,0,0,1,1.394.3,5.456,5.456,0,0,1,1.251.571,2.367,2.367,0,0,1,.858.893.176.176,0,0,1,.16.089.821.821,0,0,0,.125.161l.428.321a10.025,10.025,0,0,0,.608,1,1.841,1.841,0,0,1,.322,1.072.323.323,0,0,1-.053.161.159.159,0,0,0-.018.16l.179.179v.072a8.482,8.482,0,0,1-.428,1.983,7.8,7.8,0,0,1-.84,1.7,10.068,10.068,0,0,1-1.2,1.483q-.679.7-1.465,1.375l-.16.16a.827.827,0,0,0-.125.2,1.172,1.172,0,0,1-.751.446,4.108,4.108,0,0,1-.929.126,3.448,3.448,0,0,1-1.09-.2,4.736,4.736,0,0,1-1.107-.535,3.379,3.379,0,0,1-.875-.822,1.68,1.68,0,0,1-.357-1.018.641.641,0,0,1,.143-.375.427.427,0,0,1,.357-.2,2.091,2.091,0,0,1,.839.179,2.081,2.081,0,0,0,.84.179,3.285,3.285,0,0,0,1.661-.518,7.479,7.479,0,0,0,1.608-1.286,7.538,7.538,0,0,0,1.215-1.68,3.655,3.655,0,0,0,.482-1.7.917.917,0,0,0-.16-.589.925.925,0,0,0-.411-.286,2.035,2.035,0,0,0-.554-.107c-.2-.012-.4-.029-.589-.053l-.071-.108-.072.393a2.282,2.282,0,0,0-.518.143q-.268.108-.483.179a6.765,6.765,0,0,0-.964.465q-.572.321-1.161.7t-1.107.768q-.518.393-.84.678a15.581,15.581,0,0,0-2.662,3.216,28.412,28.412,0,0,0-3.626,8.521,17.766,17.766,0,0,0-.536,4.127,4.64,4.64,0,0,0,.482,2.2,1.994,1.994,0,0,0,1.947.911,4.356,4.356,0,0,0,2.465-.643,8.481,8.481,0,0,0,1.733-1.536q.768-.892,1.483-1.858a5.817,5.817,0,0,1,1.75-1.572,23.365,23.365,0,0,1-1.875,2.447q-1.018,1.161-1.947,2.411a12.064,12.064,0,0,0,1-1.072l1.232-1.447q.625-.732,1.179-1.339a4.116,4.116,0,0,1,.875-.786l-.357.822a2.163,2.163,0,0,1,.608-.464l.107.072a2.726,2.726,0,0,1-.357.875,8.058,8.058,0,0,1-.535.8l1.036-1.287q-.786,1.286-1.679,2.483t-1.822,2.412a17.638,17.638,0,0,0,1.2-1.322q.553-.678,1.125-1.393-.607.893-1.429,1.875a14.691,14.691,0,0,1-1.822,1.822,10.182,10.182,0,0,1-2.108,1.376,5.124,5.124,0,0,1-2.25.535m4.5-27.009a3.314,3.314,0,0,0-1.358.589q-.964.59-1.965,1.34a19.849,19.849,0,0,0-1.8,1.518,2.8,2.8,0,0,0-.875,1.161c.119-.1.232-.179.339-.25a1.6,1.6,0,0,1,.375-.179l.036-.035a2.517,2.517,0,0,1,.786-.929q.643-.535,1.446-1.107t1.572-1.054q.768-.481,1.161-.768a.886.886,0,0,1,.16-.107c.083-.048.125-.1.125-.143Zm-5.9,15.006H102.8v.178Zm.143-11.219q.536-.392,1.108-.893a6.526,6.526,0,0,0,.964-1.036Zm1.465,1.536a1.78,1.78,0,0,0,.608-.411q.428-.374.929-.857t.947-.929l.661-.661A1.833,1.833,0,0,0,107,5.31q-.483.411-1.036.911t-1,.946a3.473,3.473,0,0,0-.518.59m.644,3.93-.143.035-.035.072.179-.072Zm.035-.179q.071,0,.108-.125a1.11,1.11,0,0,1,.071-.2l-.107-.071a.275.275,0,0,1-.036.107.276.276,0,0,0-.036.108Zm.608-2.43-.036-.108-.072.108.036.071Zm.107,1.072-.143.071.071.107.072-.071Zm.25-.25-.071-.107-.072.143.036.072Zm-.107-1.322q.928-.857,1.947-1.7a18.894,18.894,0,0,0,1.876-1.768,3.9,3.9,0,0,0-.822.535q-.608.465-1.269,1.054t-1.179,1.126a2.036,2.036,0,0,0-.554.75m5.859-3.716q-.607.322-1.465.822A18.768,18.768,0,0,0,108.7,6.793a12.221,12.221,0,0,0-1.483,1.286,3.51,3.51,0,0,0-.875,1.358,1.669,1.669,0,0,0,.464-.572,4.854,4.854,0,0,0,.429-.34,3.677,3.677,0,0,0,.357-.375,1.936,1.936,0,0,1,.679-.768q.571-.447,1.25-.929t1.34-.893a7.44,7.44,0,0,0,.982-.7m-5.109.393.214-.179-.25.179Zm1.215,20.365.035.071.072-.107-.036-.072Zm1.894.108a5.314,5.314,0,0,0,.554-.662q.268-.374.554-.768-.286.357-.572.7a6.683,6.683,0,0,0-.535.733m.071-23.83.072.107.036-.107-.072-.072Zm1.822,20.258.036.107.107-.107v-.072Zm.25,1.465.035-.143.108-.108-.036.143Zm.286-.429a.77.77,0,0,1,.125-.3,1.779,1.779,0,0,1,.2-.233Zm.357-12.648a2.5,2.5,0,0,0,1.054-.518,6.365,6.365,0,0,1,.947-.661V9.258l.357-.572a1.938,1.938,0,0,0,.25-.608l-.25.465a7.172,7.172,0,0,0-1.072,1,3.763,3.763,0,0,1-1.179.893Zm1.822,1.608.036.035-.072.108-.215.108V12.3Zm-.107-1.823-.108.357.143-.179Zm-.072,1.358q.464-.357.876-.7a3.6,3.6,0,0,0,.732-.839,1.917,1.917,0,0,0-.3.25c-.155.143-.322.3-.5.464s-.346.328-.5.483a2.693,2.693,0,0,0-.3.34m1.179-2.322a2.594,2.594,0,0,0-.929,1.036q.071,0,.232-.16c.107-.108.22-.232.339-.376s.226-.279.322-.41a2.425,2.425,0,0,0,.179-.268l-.071-.072Zm-.536,2.536-.16.161a.249.249,0,0,1-.161.089l.286-.286Zm1.429-1.607a1.425,1.425,0,0,1-.5.8,5.059,5.059,0,0,1-.751.625,8.2,8.2,0,0,0,.59-.732,3.605,3.605,0,0,1,.661-.7m.25-2.608a.226.226,0,0,1-.089.054.083.083,0,0,0-.054.089h.072l.071-.072Zm.036-1,.036.107h.036l.107-.107-.036-.072h-.107Z" transform="translate(-44.52 -0.235)" fill="#a80b38"/>
      <path id="Trazado_10107" data-name="Trazado 10107" d="M128.621,31.26a1.241,1.241,0,0,1-.036-.357,2.12,2.12,0,0,1,.071-.554c.048-.179.1-.363.143-.554l.179-.215a2.446,2.446,0,0,1,.179-1.019q.25-.874.679-2.125t.964-2.68q.536-1.428,1.054-2.7t.929-2.215a11.588,11.588,0,0,1,.59-1.232,1.52,1.52,0,0,0,.215-.089.475.475,0,0,1,.215-.053.7.7,0,0,1,.322.143q.214.143.464.34t.464.393a2.957,2.957,0,0,0,.321.268q.357.608.661,1.268a3.724,3.724,0,0,1,.339,1.375.289.289,0,0,1,.108.036.263.263,0,0,0,.107.035.385.385,0,0,0,.286-.107.385.385,0,0,1,.286-.107l.071.071a1.29,1.29,0,0,1-.25.465l.393-.357a3.14,3.14,0,0,0-.321.375c-.1.131-.191.256-.286.375a.575.575,0,0,0,.071-.25.621.621,0,0,0-.178.179,2.826,2.826,0,0,0-.215.34q-.108.2-.179.357a.667.667,0,0,0-.072.232.243.243,0,0,0,.018.108.249.249,0,0,1,.018.107,2.184,2.184,0,0,1,.429-.59q.321-.339.535-.554v-.214a4,4,0,0,0,.59-.464q.447-.393.929-.858l.911-.875a4.976,4.976,0,0,0,.5-.518l-.25-.072q-.394.25-.751.5a7.551,7.551,0,0,0-.679.536l-.179.036a.14.14,0,0,1,.036.161,1.16,1.16,0,0,1-.107.2.645.645,0,0,1-.179.179,1.118,1.118,0,0,0-.143.107.513.513,0,0,0,.179-.357,6.271,6.271,0,0,1-.625.554,1.286,1.286,0,0,1-.8.233q.321-.429.839-1.019a13.992,13.992,0,0,1,1.108-1.126,6.6,6.6,0,0,1,1.232-.893,2.571,2.571,0,0,1,1.251-.357,2.437,2.437,0,0,1,1.429.357,7.9,7.9,0,0,1,1.107,1c.072.1.166.215.286.357a.482.482,0,0,1,.143.393l.107.428c.119,0,.185.1.2.286a1.772,1.772,0,0,0,.053.393.4.4,0,0,0-.2.339c-.012.155-.018.292-.018.411a1.487,1.487,0,0,1-.018.268.511.511,0,0,1-.2.233.317.317,0,0,1-.089.3,1.032,1.032,0,0,1-.268.2l-.035.393h-.143l-.071-.179-.25.071.179.286a.779.779,0,0,1-.5.143c-.071.119-.143.232-.214.34a1.8,1.8,0,0,0-.179.339l-.429.215a2.528,2.528,0,0,0,.322-.018.37.37,0,0,0,.25-.16l.357-.215-.929.929-.143-.143.143-.214-.428-.072-.215-.179v-.179l-.179.143c-.1-.023-.274-.053-.535-.089s-.393-.112-.393-.232a.767.767,0,0,1,.053-.179.676.676,0,0,0,.053-.214l-.035-.072a2.324,2.324,0,0,0-.411-.143,1.759,1.759,0,0,0-.375-.071q-.179,0-.518.376a10.514,10.514,0,0,0-.768.982q-.429.608-.893,1.3t-.893,1.376q-.428.678-.768,1.2t-.482.732q.25-.464.714-1.286t1-1.662q.536-.839,1.054-1.59a8.293,8.293,0,0,1,.875-1.108l.447-.447a1.33,1.33,0,0,0,.339-.482,13.251,13.251,0,0,0-2.2,2.429q-1.018,1.43-1.93,3t-1.786,3.162a27.937,27.937,0,0,1-1.8,2.876l-.643.822a.36.36,0,0,0-.268.089,1.335,1.335,0,0,1-.2.16l-.143.286v-.678l-.035.035c-.167.1-.274.155-.321.179a.184.184,0,0,0-.089.072.632.632,0,0,0-.036.089,1.832,1.832,0,0,1-.161.268c0,.119-.048.179-.143.179l-.071-.036.143-.786a3.356,3.356,0,0,1,.2-.518,4.869,4.869,0,0,0,.2-.482q.143-.392.393-1t.5-1.251q.25-.643.464-1.232a6.364,6.364,0,0,0,.286-.983l-.036-.035a10.089,10.089,0,0,0-.411.982q-.233.626-.483,1.286t-.464,1.215a3.178,3.178,0,0,1-.357.733.973.973,0,0,1,.036-.215,1.013,1.013,0,0,0,.036-.214,3.4,3.4,0,0,0-.393,1.072,5.931,5.931,0,0,1-.322,1.107l-.036.036V35.19a1.616,1.616,0,0,1,.143-.536,1.023,1.023,0,0,0-.3.589,1.031,1.031,0,0,1-.3.59,2.936,2.936,0,0,1-.125-.286.81.81,0,0,1-.053-.286,2.135,2.135,0,0,1,.089-.643.825.825,0,0,1,.375-.464,2.451,2.451,0,0,1,.089-1.037q.16-.571.268-1a.973.973,0,0,0,.25-.428l-.035-.108a.934.934,0,0,1-.179-.125c-.072-.059-.1-.113-.072-.161.024-.095.053-.226.089-.393a1.1,1.1,0,0,1,.125-.357l.036.108.25.143a2.3,2.3,0,0,0-.107-.447,2.163,2.163,0,0,1-.108-.447l-.286.179-.179.25.036.25.179.108-.25.214a6.692,6.692,0,0,1-.393,2.251,20.13,20.13,0,0,0-.643,2.179,1.773,1.773,0,0,1-.2-.232.507.507,0,0,1-.089-.3,3.882,3.882,0,0,1,.071-.554q.071-.411.161-.876t.179-.858a1.794,1.794,0,0,1,.16-.5l.107-.072a.911.911,0,0,0-.053-.321c-.036-.095-.078-.19-.125-.286h.035l.072-.108-.036-.071Zm.535,3.966-.107-.071-.143.071.107.071Zm.5-3.394-.143-.107.072-.072h.071l.108.143Zm.643-2.215-.035-.036c-.12.072-.179.036-.179-.107l-.179-.108a.366.366,0,0,1,.089.215,2.077,2.077,0,0,1,.018.25l.215.036Zm-.321-.679.036.108.25.035.107-.072-.179-.107-.072-.143h-.071Zm0,4.966.072-.25.071-.035-.071.214Zm.572-6.253a1.388,1.388,0,0,0-.2.34,1.192,1.192,0,0,0-.125.34v.035l.179-.214a1.494,1.494,0,0,1,.089-.215.558.558,0,0,0,.053-.25Zm.428-1.071-.071-.179a.577.577,0,0,1-.054.16.607.607,0,0,0-.053.161v.107Zm0,4.5-.179.286V31.4l.143-.143Zm.608-6.038-.036-.107-.108.107.072.143Zm.143-.393-.072-.072-.071.072.107.071Zm.179.5-.036-.215-.107.143.071.179Zm.25,3.572-.107.036-.072.179.036.036.108-.072Zm.25-5.395-.072-.107-.071.035.071.108Zm.179,4.43a.571.571,0,0,0,.071-.25l.036-.072a.31.31,0,0,0-.143.25Zm.536-1.465v-.143l-.072-.072Zm.143,5q.107,0,.3-.339a1.279,1.279,0,0,0,.2-.447Zm.286-2.037v.072l.072-.215Zm.286-4.359-.072-.072-.072.072.072.107Zm.357-5.467.035-.071-.035-.108-.072.108ZM134.3,30.4l.107-.143.108.036-.143.107Zm.322-.464a2.915,2.915,0,0,1,.25-.428Zm.25-.428a.1.1,0,0,1,.036-.072Zm1.429-3.68q-.25.5-.483,1.019t-.447,1.054q1.143-1.679,2.215-3.34a15.348,15.348,0,0,1,2.608-3.055l.072-.357h-.036q-.93,1.144-1.912,2.215a14.359,14.359,0,0,0-1.733,2.322Zm.071-1.322v.072a.166.166,0,0,0,.125-.125.307.307,0,0,1,.089-.16,4.756,4.756,0,0,1,.589-.858q.339-.392.679-.768c.226-.25.452-.506.679-.769a3.625,3.625,0,0,0,.554-.857,2.021,2.021,0,0,0-.268.161,1.963,1.963,0,0,1-.268.16q-.071.107-.339.483t-.572.786q-.3.411-.554.732a1.746,1.746,0,0,1-.322.357Zm3.645-2.215h-.143l-.108.179.108-.036Zm.464-1.108.072.071.036-.071-.072-.108Zm.643,2.25a.156.156,0,0,1,.018-.071.156.156,0,0,0,.018-.071l-.107-.072Zm.964-.321.108.142.107-.142-.107-.107Zm.536-.643h.036l.215-.072.071-.5-.214.465Zm.429,1.643a1.562,1.562,0,0,1-.286.357l.072-.179Z" transform="translate(-59.584 -8.124)" fill="#a80b38"/>
      <path id="Trazado_10108" data-name="Trazado 10108" d="M169.12,22.432a3.54,3.54,0,0,1-.393,1.5,9.558,9.558,0,0,1-.983,1.612,11.367,11.367,0,0,1-1.268,1.433,6.538,6.538,0,0,1-1.251.966l-.179.216a2.487,2.487,0,0,0,.59-.34,8.33,8.33,0,0,0,.751-.609q.376-.34.7-.662t.5-.538l.286-.108q-.394.395-1.09,1.021a17.984,17.984,0,0,1-1.519,1.217,15.412,15.412,0,0,1-1.608,1.021,2.906,2.906,0,0,1-1.321.429h-.179a4.177,4.177,0,0,1-.625.233,2.382,2.382,0,0,1-.661.125,1.06,1.06,0,0,1-.339-.053.655.655,0,0,0-.34-.018q-.072.465-.16.931a4.72,4.72,0,0,0-.089.9c0,.119.005.263.018.43a1.673,1.673,0,0,0,.107.484,1.885,1.885,0,0,0,.214.411.392.392,0,0,0,.34.179,4.3,4.3,0,0,0,1.554-.268,8.216,8.216,0,0,0,1.339-.661q.644-.392,1.268-.839a13.416,13.416,0,0,1,1.34-.84,3.326,3.326,0,0,1-.751.893q-.465.394-.964.751a2.8,2.8,0,0,0,1.036-.7,3.122,3.122,0,0,1,1.072-.732l-.143.214a1.708,1.708,0,0,1,.393-.035l-.035.214.071.107q-.5.5-1,1.019t-1.036.982l.107-.071a2.922,2.922,0,0,1-.679.732,8.822,8.822,0,0,1-1,.7,6.988,6.988,0,0,1-1.09.536,2.759,2.759,0,0,1-.982.215,5.432,5.432,0,0,1-2.323-.483,5.614,5.614,0,0,1-2.947-3.187,6.588,6.588,0,0,1-.411-2.345,9.986,9.986,0,0,1,.822-3.687,16.9,16.9,0,0,1,2.161-3.83,13.746,13.746,0,0,1,3.055-3.007,6.036,6.036,0,0,1,3.536-1.218,3.254,3.254,0,0,1,1.644.43,4.675,4.675,0,0,1,1.3,1.11,5.142,5.142,0,0,1,.858,1.54,5.05,5.05,0,0,1,.3,1.683m-9.075-.675a14.548,14.548,0,0,1,1.8-1.412,14.436,14.436,0,0,0,1.8-1.411.772.772,0,0,1-.464,0l-.214.071q-.286.251-.715.59t-.893.715q-.465.375-.839.732a1.756,1.756,0,0,0-.483.679Zm.929-1.413c-.12.12-.239.232-.357.34a3.508,3.508,0,0,0-.357.375q.178-.178.357-.339a3.8,3.8,0,0,0,.357-.376m.179,6.935a13.224,13.224,0,0,0,1.661-1.09,18.221,18.221,0,0,0,1.875-1.607,10.857,10.857,0,0,0,1.519-1.84,3.385,3.385,0,0,0,.625-1.822c0-.143-.06-.215-.179-.215a2.339,2.339,0,0,0-1.519.822,14.716,14.716,0,0,0-1.626,1.912q-.786,1.09-1.429,2.179t-.929,1.661m1.572-3.536a3.028,3.028,0,0,0-.286.357q-.18.25-.375.5a4.091,4.091,0,0,0-.34.5.893.893,0,0,0-.143.357h.036q.286-.392.607-.822a3.7,3.7,0,0,0,.5-.893m-.858-1.968a2.918,2.918,0,0,0,.768-.572q.446-.428.7-.714-.393.286-.786.589a3.432,3.432,0,0,0-.679.7m.536,5.611a9.215,9.215,0,0,0,1.8-1.2,7.393,7.393,0,0,0,1.482-1.554,1.779,1.779,0,0,0-.554.25.949.949,0,0,0-.375.464,7.942,7.942,0,0,1-1.215,1,5.262,5.262,0,0,0-1.143,1.036M164.94,20.6a2.506,2.506,0,0,0-.536.411q-.322.3-.661.644t-.643.678q-.3.34-.482.554.607-.571,1.179-1.125T164.94,20.6m.893.144a3.164,3.164,0,0,0-.661.375,9.111,9.111,0,0,0-.911.715q-.465.41-.822.785a1.358,1.358,0,0,0-.393.59l.036.035q.678-.677,1.375-1.268t1.376-1.232m-1.072,6a6.074,6.074,0,0,0,.929-.732q.429-.41.858-.8Zm.607-1.929-.179.286-.286.143Zm1.608,1.144a2.314,2.314,0,0,0-.322.25q-.25.214-.536.464t-.715.679a.7.7,0,0,0,.34-.179,4.991,4.991,0,0,0,.482-.429l.465-.464a2.524,2.524,0,0,0,.286-.321m-1-1.787-.357.321a.29.29,0,0,0,.179-.053.923.923,0,0,1,.143-.089l.072.036h.035l.036-.108Zm2.143,1.286c0-.048.054-.131.161-.25s.184-.2.232-.25a.437.437,0,0,1-.161.268l-.232.232" transform="translate(-72.288 -8.217)" fill="#a80b38"/>
      <path id="Trazado_10109" data-name="Trazado 10109" d="M184.628,35.194a3.692,3.692,0,0,1-1.894-.5,5.408,5.408,0,0,1-1.483-1.268,5.93,5.93,0,0,1-1.3-3.662,11.909,11.909,0,0,1,.679-3.7,16.031,16.031,0,0,1,1.876-3.859,12.485,12.485,0,0,1,2.8-3.037,5.632,5.632,0,0,1,3.5-1.232,6.111,6.111,0,0,1,3.358.982,5.753,5.753,0,0,1,2.251,2.7l-.072.25a.554.554,0,0,1,.107.393,6.1,6.1,0,0,1-.178,1.447,6.053,6.053,0,0,0-.179,1.447v.071l.107-.036.072-.179a.153.153,0,0,0,.018.072.163.163,0,0,1,.018.072,4.365,4.365,0,0,1-.16,1.107q-.161.608-.34,1.108a13.9,13.9,0,0,1-1.393,2.786,12.955,12.955,0,0,1-2.108,2.519,10.786,10.786,0,0,1-2.662,1.822,6.878,6.878,0,0,1-3.019.7m1.143-15.006a3.031,3.031,0,0,1-.643.768q-.393.34-.857.768a6.937,6.937,0,0,0-.893,1.018,5.117,5.117,0,0,0-.715,1.554,1.073,1.073,0,0,0,.233-.232,2.1,2.1,0,0,0,.16-.268,14.856,14.856,0,0,1,1.483-1.911l1.626-1.769Zm-2.68,2.715c-.048.1-.119.227-.215.393s-.167.3-.215.394Zm.25-.429.036.107.072-.107-.036-.071Zm.679,2.537q.428-.607.8-1.251t.768-1.25c-.071.024-.191.149-.357.375a8.7,8.7,0,0,0-.5.768q-.25.428-.464.822a2.9,2.9,0,0,0-.25.536m.893,1.894v-.071a.217.217,0,0,1-.089.053.083.083,0,0,0-.053.089h.072Zm2.894-5.145a13.388,13.388,0,0,0-1.572,2.126,16.265,16.265,0,0,0-1.143,2.376l-.035.036h.035l.822-1.644a7.939,7.939,0,0,1,.965-1.429,6.35,6.35,0,0,0,.929-1.465m1.607-.607a3.248,3.248,0,0,0-1.268,1.072,17.958,17.958,0,0,0-2.518,4.162,4.705,4.705,0,0,0-.464,1.626c0,.048.012.071.036.071a7.543,7.543,0,0,0,.5-1.394,5.548,5.548,0,0,1,.535-1.357,10.075,10.075,0,0,1,1.519-2.126,19.216,19.216,0,0,0,1.661-2.054m1.716,1.287v-.983a3.205,3.205,0,0,0-.143-.947.071.071,0,0,1-.053-.018.074.074,0,0,0-.053-.018.959.959,0,0,0-.5.25q-.322.25-.679.571t-.679.643a5.445,5.445,0,0,0-.429.465,10.5,10.5,0,0,0-1.161,1.644,19.4,19.4,0,0,0-1.072,2.108,18.324,18.324,0,0,0-.8,2.215,7.147,7.147,0,0,0-.322,1.965v.518a5.654,5.654,0,0,0,.053.768,3.554,3.554,0,0,0,.16.7c.072.2.166.3.286.3a.69.69,0,0,0,.286-.089.986.986,0,0,0,.25-.16,6.362,6.362,0,0,0,1.983-1.911,11.877,11.877,0,0,0,1.143-2.305q.446-1.213.786-2.483a14.029,14.029,0,0,1,.947-2.518Zm-2.287,8.4a3.323,3.323,0,0,0,.518-.608,8.766,8.766,0,0,0,.572-.929,9.349,9.349,0,0,0,.464-1,3.489,3.489,0,0,0,.232-.786l-.071-.179-.393.679.357-.572a5.8,5.8,0,0,1-.84,1.7,5.8,5.8,0,0,0-.839,1.7m2.608-3.037a2.947,2.947,0,0,1-.268.786,7.489,7.489,0,0,0-.34.786V29.4c.024,0,.083-.089.179-.268s.19-.381.286-.607.19-.447.286-.661.166-.369.215-.464Zm2.572-2.286a.144.144,0,0,0-.143.125,1.18,1.18,0,0,1-.072.2,15.914,15.914,0,0,1-1.178,2.734,28.621,28.621,0,0,0-1.287,2.661,6.984,6.984,0,0,0,.715-1.125q.322-.624.607-1.268t.536-1.215a5.121,5.121,0,0,1,.536-.964,3.234,3.234,0,0,1,.125-.572q.088-.286.16-.571m-1.286,1.821q-.322.751-.715,1.465a10.715,10.715,0,0,0-.679,1.5c.072-.024.2-.2.393-.536s.381-.7.571-1.09.363-.768.518-1.125a2.53,2.53,0,0,0,.232-.679v-.035a.581.581,0,0,1-.25.357l-.035-.072-.108.036Zm-.893-.286.108.072.071-.107v-.143l-.143.072Z" transform="translate(-83.687 -8.342)" fill="#a80b38"/>
    </g>
  </g>
</svg>
