<svg xmlns="http://www.w3.org/2000/svg" xmlns:xlink="http://www.w3.org/1999/xlink" width="214.875" height="60.276" viewBox="0 0 214.875 60.276">
  <defs>
    <clipPath id="clip-path">
      <rect id="Rectángulo_483" data-name="Rectángulo 483" width="214.875" height="60.276" fill="none"/>
    </clipPath>
  </defs>
  <g id="Grupo_10812" data-name="Grupo 10812" transform="translate(0 0)">
    <g id="Grupo_10811" data-name="Grupo 10811" transform="translate(0 0)" clip-path="url(#clip-path)">
      <path id="Trazado_10070" data-name="Trazado 10070" d="M17.337,94.768V102.7q0,1.857-1.581,1.855h-1.1q-1.569,0-1.568-1.866V94.768h1.309v7.962q0,.641.572.641H15.5q.531,0,.531-.641V94.768Z" transform="translate(-6.113 -44.281)" fill="#313133"/>
      <path id="Trazado_10071" data-name="Trazado 10071" d="M28.645,99.5V94.768h1.308v9.789H28.645v-1.951L27.24,98.148v6.409H25.931V94.768H27.24Z" transform="translate(-12.116 -44.281)" fill="#313133"/>
      <rect id="Rectángulo_478" data-name="Rectángulo 478" width="1.309" height="9.789" transform="translate(20.428 50.487)" fill="#313133"/>
      <path id="Trazado_10072" data-name="Trazado 10072" d="M49.486,94.768l-1.581,9.789H46.351l-1.582-9.789h1.3l1.062,7.471,1.064-7.471Z" transform="translate(-20.918 -44.281)" fill="#313133"/>
      <path id="Trazado_10073" data-name="Trazado 10073" d="M57.334,104.557V94.768H60.58v1.185H58.643v2.971h1.718v1.188H58.643v3.258H60.58v1.186Z" transform="translate(-26.789 -44.281)" fill="#313133"/>
      <path id="Trazado_10074" data-name="Trazado 10074" d="M67.752,94.768h2.563q1.5,0,1.5,1.677v2.413q0,1.281-.777,1.621l.913,4.078H70.711l-.859-3.954H69.06v3.954H67.752Zm1.308,4.717h.859q.586,0,.587-.71V96.663q0-.71-.587-.71H69.06Z" transform="translate(-31.657 -44.281)" fill="#313133"/>
      <path id="Trazado_10075" data-name="Trazado 10075" d="M82.375,97.4v-.859a.512.512,0,0,0-.572-.585h-.2q-.559,0-.559.585v1.623a.476.476,0,0,0,.108.367,2.867,2.867,0,0,0,.355.247l1.242.668a5.746,5.746,0,0,1,.579.362.931.931,0,0,1,.266.313,1.718,1.718,0,0,1,.1.7v2.086q0,1.649-1.582,1.649h-.8q-1.569,0-1.568-1.8v-.491h1.309v.531a.512.512,0,0,0,.587.573h.231c.346,0,.518-.191.518-.573v-1.663a.486.486,0,0,0-.109-.368,2.622,2.622,0,0,0-.355-.246l-1.24-.7a4,4,0,0,1-.593-.367.847.847,0,0,1-.266-.389,1.972,1.972,0,0,1-.082-.621v-2q0-1.679,1.568-1.678h.818q1.569,0,1.568,1.678V97.4Z" transform="translate(-37.254 -44.281)" fill="#313133"/>
      <rect id="Rectángulo_479" data-name="Rectángulo 479" width="1.309" height="9.789" transform="translate(48.884 50.487)" fill="#313133"/>
      <path id="Trazado_10076" data-name="Trazado 10076" d="M99.078,104.557V94.768h2.277a1.644,1.644,0,0,1,1.841,1.881v6.49q0,1.418-1.567,1.418Zm1.309-1.186h.981q.519,0,.519-.435V96.663q0-.71-.587-.71h-.913Z" transform="translate(-46.295 -44.281)" fill="#313133"/>
      <path id="Trazado_10077" data-name="Trazado 10077" d="M112.724,104.557h-1.308V96.446q0-1.679,1.568-1.678h.982q1.568,0,1.568,1.678v8.112h-1.309v-3.586h-1.5Zm1.5-4.772V96.527a.506.506,0,0,0-.573-.573H113.3a.506.506,0,0,0-.573.573v3.258Z" transform="translate(-52.06 -44.281)" fill="#313133"/>
      <path id="Trazado_10078" data-name="Trazado 10078" d="M123.88,104.557V94.768h2.277A1.645,1.645,0,0,1,128,96.649v6.49q0,1.418-1.568,1.418Zm1.308-1.186h.982c.346,0,.518-.145.518-.435V96.663q0-.71-.587-.71h-.914Z" transform="translate(-57.883 -44.281)" fill="#313133"/>
      <path id="Trazado_10079" data-name="Trazado 10079" d="M142.995,104.557V94.768h2.275a1.644,1.644,0,0,1,1.839,1.881v6.49q0,1.418-1.566,1.418Zm1.307-1.186h.982q.518,0,.518-.435V96.663q0-.71-.585-.71H144.3Z" transform="translate(-66.815 -44.281)" fill="#313133"/>
      <path id="Trazado_10080" data-name="Trazado 10080" d="M155.453,104.557V94.768H158.7v1.185h-1.937v2.971h1.719v1.188h-1.719v3.258H158.7v1.186Z" transform="translate(-72.636 -44.281)" fill="#313133"/>
      <path id="Trazado_10081" data-name="Trazado 10081" d="M175.183,100.521l1.214-5.753h1.445v9.789h-1.308l.136-6.409-.982,4.636h-1.008l-.981-4.636.135,6.409h-1.308V94.768h1.445Z" transform="translate(-80.612 -44.281)" fill="#313133"/>
      <path id="Trazado_10082" data-name="Trazado 10082" d="M187.37,104.557V94.768h3.243v1.185h-1.935v2.971H190.4v1.188h-1.719v3.258h1.935v1.186Z" transform="translate(-87.549 -44.281)" fill="#313133"/>
      <path id="Trazado_10083" data-name="Trazado 10083" d="M197.786,104.557V94.768h2.278a1.645,1.645,0,0,1,1.84,1.881v6.49q0,1.418-1.568,1.418Zm1.308-1.186h.982c.345,0,.519-.145.519-.435V96.663c0-.473-.2-.71-.586-.71h-.915Z" transform="translate(-92.416 -44.281)" fill="#313133"/>
      <rect id="Rectángulo_480" data-name="Rectángulo 480" width="1.307" height="9.789" transform="translate(112.01 50.487)" fill="#313133"/>
      <path id="Trazado_10084" data-name="Trazado 10084" d="M219.023,104.557q-1.579,0-1.58-1.663V96.445q0-1.679,1.567-1.677h1.256q1.567,0,1.567,1.677v6.449q0,1.665-1.582,1.663Zm.315-1.186h.669q.519,0,.519-.573V96.526a.513.513,0,0,0-.587-.573h-.614a.506.506,0,0,0-.573.573V102.8a.512.512,0,0,0,.586.573" transform="translate(-101.601 -44.281)" fill="#313133"/>
      <path id="Trazado_10085" data-name="Trazado 10085" d="M232.806,97.4v-.859a.511.511,0,0,0-.572-.585h-.2q-.559,0-.558.585v1.623a.479.479,0,0,0,.107.367,2.663,2.663,0,0,0,.356.247l1.241.668a5.85,5.85,0,0,1,.579.362.93.93,0,0,1,.266.313,1.725,1.725,0,0,1,.1.7v2.086q0,1.649-1.581,1.649h-.806q-1.568,0-1.568-1.8v-.491h1.31v.531a.512.512,0,0,0,.585.573h.231q.518,0,.518-.573v-1.663a.488.488,0,0,0-.108-.368,2.588,2.588,0,0,0-.355-.246l-1.24-.7a3.985,3.985,0,0,1-.593-.367.849.849,0,0,1-.267-.389,1.972,1.972,0,0,1-.082-.621v-2q0-1.679,1.568-1.678h.819q1.566,0,1.568,1.678V97.4Z" transform="translate(-107.544 -44.281)" fill="#313133"/>
      <path id="Trazado_10086" data-name="Trazado 10086" d="M250.025,104.557h-1.309V96.446q0-1.679,1.569-1.678h.981q1.567,0,1.567,1.678v8.112h-1.307v-3.586h-1.5Zm1.5-4.772V96.527a.506.506,0,0,0-.573-.573H250.6a.506.506,0,0,0-.573.573v3.258Z" transform="translate(-116.214 -44.281)" fill="#313133"/>
      <path id="Trazado_10087" data-name="Trazado 10087" d="M265.434,94.768V102.7q0,1.857-1.581,1.855h-1.1q-1.567,0-1.568-1.866V94.768h1.309v7.962c0,.427.192.641.573.641h.531q.532,0,.533-.641V94.768Z" transform="translate(-122.037 -44.281)" fill="#313133"/>
      <path id="Trazado_10088" data-name="Trazado 10088" d="M274.032,104.557V94.768h2.277a1.645,1.645,0,0,1,1.841,1.881v6.49q0,1.418-1.567,1.418Zm1.31-1.186h.981q.518,0,.518-.435V96.663q0-.71-.586-.71h-.913Z" transform="translate(-128.043 -44.281)" fill="#313133"/>
      <rect id="Rectángulo_481" data-name="Rectángulo 481" width="1.31" height="9.789" transform="translate(152.629 50.487)" fill="#313133"/>
      <path id="Trazado_10089" data-name="Trazado 10089" d="M295.27,104.557q-1.582,0-1.581-1.663V96.445q0-1.679,1.567-1.677h1.254q1.568,0,1.569,1.677v6.449q0,1.665-1.581,1.663Zm.314-1.186h.667q.518,0,.518-.573V96.526a.512.512,0,0,0-.587-.573h-.614a.506.506,0,0,0-.573.573V102.8a.513.513,0,0,0,.588.573" transform="translate(-137.227 -44.281)" fill="#313133"/>
      <path id="Trazado_10090" data-name="Trazado 10090" d="M310.486,94.768l-1.581,9.789h-1.555l-1.581-9.789h1.3l1.063,7.471,1.063-7.471Z" transform="translate(-142.872 -44.281)" fill="#313133"/>
      <rect id="Rectángulo_482" data-name="Rectángulo 482" width="1.308" height="9.789" transform="translate(169.728 50.487)" fill="#313133"/>
      <path id="Trazado_10091" data-name="Trazado 10091" d="M328.3,97.4v-.859a.513.513,0,0,0-.574-.585h-.2c-.373,0-.56.195-.56.585v1.623a.474.474,0,0,0,.111.367,2.694,2.694,0,0,0,.354.247l1.241.668a5.791,5.791,0,0,1,.58.362.932.932,0,0,1,.265.313,1.734,1.734,0,0,1,.1.7v2.086q0,1.649-1.581,1.649h-.8q-1.569,0-1.57-1.8v-.491h1.308v.531a.513.513,0,0,0,.588.573h.233c.344,0,.518-.191.518-.573v-1.663a.477.477,0,0,0-.111-.368,2.374,2.374,0,0,0-.352-.246l-1.242-.7a4.061,4.061,0,0,1-.592-.367.853.853,0,0,1-.267-.389,1.986,1.986,0,0,1-.082-.621v-2q0-1.679,1.57-1.678h.817q1.569,0,1.568,1.678V97.4Z" transform="translate(-152.162 -44.281)" fill="#313133"/>
      <path id="Trazado_10092" data-name="Trazado 10092" d="M341.939,94.768V102.7q0,1.857-1.581,1.855h-1.1q-1.566,0-1.566-1.866V94.768H339v7.962c0,.427.19.641.572.641h.533q.531,0,.531-.641V94.768Z" transform="translate(-157.786 -44.281)" fill="#313133"/>
      <path id="Trazado_10093" data-name="Trazado 10093" d="M351.711,104.557H350.4V96.446q0-1.679,1.568-1.678h.98q1.569,0,1.568,1.678v8.112h-1.308v-3.586h-1.5Zm1.5-4.772V96.527a.506.506,0,0,0-.572-.573h-.356a.506.506,0,0,0-.573.573v3.258Z" transform="translate(-163.727 -44.281)" fill="#313133"/>
      <path id="Trazado_10094" data-name="Trazado 10094" d="M365.977,104.557H362.87V94.768h1.307v8.6h1.8Z" transform="translate(-169.552 -44.281)" fill="#313133"/>
      <path id="Trazado_10095" data-name="Trazado 10095" d="M372.67,104.557V94.768h3.245v1.185h-1.937v2.971H375.7v1.188h-1.718v3.258h1.937v1.186Z" transform="translate(-174.132 -44.281)" fill="#313133"/>
      <path id="Trazado_10096" data-name="Trazado 10096" d="M385.475,97.4v-.859a.511.511,0,0,0-.571-.585h-.2q-.56,0-.56.585v1.623a.474.474,0,0,0,.11.367,2.574,2.574,0,0,0,.354.247l1.24.668a5.7,5.7,0,0,1,.58.362.93.93,0,0,1,.266.313,1.739,1.739,0,0,1,.1.7v2.086q0,1.649-1.582,1.649h-.8q-1.569,0-1.568-1.8v-.491h1.308v.531a.513.513,0,0,0,.586.573h.232c.347,0,.518-.191.518-.573v-1.663a.484.484,0,0,0-.108-.368,2.671,2.671,0,0,0-.354-.246l-1.242-.7a3.973,3.973,0,0,1-.592-.367.842.842,0,0,1-.265-.389,1.9,1.9,0,0,1-.082-.621v-2q0-1.679,1.568-1.678h.818q1.568,0,1.569,1.678V97.4Z" transform="translate(-178.879 -44.281)" fill="#313133"/>
      <path id="Trazado_10097" data-name="Trazado 10097" d="M30.947,13.463a9.876,9.876,0,0,0-2.214-2.418,10.259,10.259,0,0,0-3.007-1.627,10.625,10.625,0,0,0-3.513-.582,11.9,11.9,0,0,0-5.7,1.261,10.648,10.648,0,0,0-3.8,3.366,14.6,14.6,0,0,0-2.12,4.819,23.169,23.169,0,0,0-.664,5.578,21.585,21.585,0,0,0,.664,5.364,14.253,14.253,0,0,0,2.12,4.7,10.757,10.757,0,0,0,3.8,3.337,11.913,11.913,0,0,0,5.7,1.259,9.334,9.334,0,0,0,7.118-2.7,12.292,12.292,0,0,0,3.135-7.111h9.616a21.718,21.718,0,0,1-1.956,7.419,17.553,17.553,0,0,1-10.255,9.2,23.05,23.05,0,0,1-7.659,1.221A23.751,23.751,0,0,1,12.882,44.8a19.914,19.914,0,0,1-7-4.812,21.155,21.155,0,0,1-4.368-7.206A25.643,25.643,0,0,1,0,23.859a26.47,26.47,0,0,1,1.518-9.1,21.658,21.658,0,0,1,4.368-7.33,19.941,19.941,0,0,1,7-4.907A23.414,23.414,0,0,1,22.213.745a23.51,23.51,0,0,1,7.055,1.037,19.46,19.46,0,0,1,5.949,3.033,16.607,16.607,0,0,1,4.337,4.941A17.3,17.3,0,0,1,41.706,16.5h-9.62a7.8,7.8,0,0,0-1.138-3.04" transform="translate(0 -0.348)" fill="#313133"/>
      <path id="Trazado_10098" data-name="Trazado 10098" d="M100.228,0l10.91,29.244L105.869,42.5,103.4,35.126H86.5L82.953,45.19h-10L90.041,0Zm.574,27.718L95.1,11.139h-.131l-5.88,16.579Z" transform="translate(-34.088 0)" fill="#313133"/>
      <path id="Trazado_10099" data-name="Trazado 10099" d="M164.7,0,181.6,45.19H171.282l-3.415-10.065h-16.9L147.426,45.19h-10L154.512,0Zm.567,27.718-5.7-16.579h-.126l-5.882,16.579Z" transform="translate(-64.213 0)" fill="#313133"/>
      <path id="Trazado_10100" data-name="Trazado 10100" d="M210.911,45.19,194.18,0h10.187l12.175,31.773h.128L226.858,0h10.254l-15,45.19Z" transform="translate(-90.731 0)" fill="#313133"/>
      <path id="Trazado_10101" data-name="Trazado 10101" d="M330.832,0h-52.04l-4.909,14.948q.857-.965,1.8-1.872a27.561,27.561,0,0,1,4.852-3.492,23.284,23.284,0,0,1,5.773-2.232,25.613,25.613,0,0,1,3.113-.569c.263-.041.527-.047.792-.067l.759-.032.851,0,.8.019a36.1,36.1,0,0,1,6.061.814,61.488,61.488,0,0,1,10.757,3.706c3.358,1.5,6.574,3.092,9.685,4.71,3.08,1.665,6.182,3.13,9.1,4.412a23.5,23.5,0,0,0,4.149,1.288c.982.109,1.571.2,2.39.229A21.4,21.4,0,0,0,337.1,21.8a14.893,14.893,0,0,0,5.753-1.54V12.017A12.016,12.016,0,0,0,330.832,0" transform="translate(-127.973 0)" fill="#a80b38"/>
      <path id="Trazado_10102" data-name="Trazado 10102" d="M323.735,35.19a20,20,0,0,1-5.39-.861,76.778,76.778,0,0,1-10.024-3.9c-3.256-1.469-6.476-3-9.737-4.409a74.079,74.079,0,0,0-9.94-3.719A22.589,22.589,0,0,0,268.6,25.375a30.741,30.741,0,0,0-4.987,4.215L255.235,55.1h66.884a12.016,12.016,0,0,0,12.017-12.017V32.143a16.229,16.229,0,0,1-5.013,2.349,21.149,21.149,0,0,1-5.387.7M281.649,47.657a9.608,9.608,0,1,1,9.61-9.61,9.608,9.608,0,0,1-9.61,9.61" transform="translate(-119.26 -9.911)" fill="#a80b38"/>
    </g>
  </g>
</svg>
